{
  "asset": {
    "version": "2.0",
    "generator": "RampReady exact X-Plane OBJ8 converter v2"
  },
  "extensionsUsed": [
    "KHR_texture_transform"
  ],
  "buffers": [
    {
      "uri": "Hangar8.bin",
      "byteLength": 10384
    }
  ],
  "bufferViews": [
    {
      "buffer": 0,
      "byteOffset": 0,
      "byteLength": 3372,
      "target": 34962
    },
    {
      "buffer": 0,
      "byteOffset": 3372,
      "byteLength": 3372,
      "target": 34962
    },
    {
      "buffer": 0,
      "byteOffset": 6744,
      "byteLength": 2248,
      "target": 34962
    },
    {
      "buffer": 0,
      "byteOffset": 8992,
      "byteLength": 1392,
      "target": 34963
    }
  ],
  "accessors": [
    {
      "bufferView": 0,
      "componentType": 5126,
      "count": 281,
      "type": "VEC3",
      "min": [
        -41.90345001,
        0.00000103,
        -20.00683022
      ],
      "max": [
        41.90345001,
        11,
        20.00683022
      ]
    },
    {
      "bufferView": 1,
      "componentType": 5126,
      "count": 281,
      "type": "VEC3",
      "min": [
        -1,
        -1,
        -1
      ],
      "max": [
        1,
        1,
        1
      ]
    },
    {
      "bufferView": 2,
      "componentType": 5126,
      "count": 281,
      "type": "VEC2",
      "min": [
        0.00127238,
        0.00139196
      ],
      "max": [
        0.99872762,
        0.99860805
      ]
    },
    {
      "bufferView": 3,
      "byteOffset": 0,
      "componentType": 5123,
      "count": 696,
      "type": "SCALAR",
      "min": [
        0
      ],
      "max": [
        280
      ]
    }
  ],
  "images": [
    {
      "uri": "Hangar8.png"
    }
  ],
  "samplers": [
    {
      "magFilter": 9729,
      "minFilter": 9987,
      "wrapS": 10497,
      "wrapT": 10497
    }
  ],
  "textures": [
    {
      "sampler": 0,
      "source": 0
    }
  ],
  "materials": [
    {
      "name": "Hangar8 source material 0",
      "pbrMetallicRoughness": {
        "baseColorTexture": {
          "index": 0,
          "extensions": {
            "KHR_texture_transform": {
              "offset": [
                0,
                1
              ],
              "scale": [
                1,
                -1
              ]
            }
          }
        },
        "metallicFactor": 0,
        "roughnessFactor": 1
      },
      "doubleSided": false,
      "alphaMode": "BLEND",
      "emissiveFactor": [
        0,
        0,
        0
      ],
      "extras": {
        "xPlaneDraped": false,
        "xPlaneLayerGroupDraped": null,
        "xPlaneLayerGroup": null,
        "xPlaneLodDraped": null,
        "xPlaneEmissionRgb": [
          0,
          0,
          0
        ],
        "xPlaneLodRange": null,
        "xPlaneShinyRatio": null,
        "xPlaneGlobalSpecular": null
      }
    }
  ],
  "meshes": [
    {
      "name": "Hangar8",
      "primitives": [
        {
          "attributes": {
            "POSITION": 0,
            "NORMAL": 1,
            "TEXCOORD_0": 2
          },
          "indices": 3,
          "material": 0,
          "mode": 4,
          "extras": {
            "xPlaneDrawState": {
              "alphaMode": "BLEND",
              "doubleSided": false,
              "shade": "smooth",
              "depthTest": true,
              "drawEnabled": true,
              "draped": false,
              "layerGroupDraped": null,
              "layerGroup": null,
              "lodDraped": null,
              "emissionRgb": [
                0,
                0,
                0
              ],
              "lodRange": null,
              "shinyRatio": null
            }
          }
        }
      ]
    }
  ],
  "nodes": [
    {
      "name": "Hangar8",
      "mesh": 0,
      "extras": {
        "xPlaneParameterizedLights": [
          {
            "name": "sodium_flood_XYZBTSS",
            "position": [
              -13.77803993,
              9.81353378,
              -22.54973412
            ],
            "params": [
              0,
              -1,
              0,
              1,
              200,
              0.5,
              10
            ],
            "raw": "LIGHT_PARAM\tsodium_flood_XYZBTSS\t-13.77803993\t9.81353378\t-22.54973412\t0 -1 0  1  200  0.5  10"
          },
          {
            "name": "sodium_flood_XYZBTSS",
            "position": [
              14.59706497,
              9.81353378,
              -22.54973412
            ],
            "params": [
              0,
              -1,
              0,
              1,
              200,
              0.5,
              10
            ],
            "raw": "LIGHT_PARAM\tsodium_flood_XYZBTSS\t14.59706497\t9.81353378\t-22.54973412\t0 -1 0  1  200  0.5  10"
          }
        ],
        "xPlaneVertexLights": [],
        "xPlaneNamedLights": [],
        "xPlaneGlobalNoShadow": false,
        "xPlaneGlobalSpecular": null
      }
    }
  ],
  "scenes": [
    {
      "nodes": [
        0
      ]
    }
  ],
  "scene": 0,
  "extras": {
    "sourceFormat": "X-Plane OBJ8",
    "sourceFile": "Hangar8.obj",
    "sourceTexture": "Hangar8.png",
    "sourceLitTexture": null,
    "sourceNormalTexture": null,
    "sourceNormalScale": null,
    "globalNoShadow": false,
    "globalSpecular": null,
    "pointCounts": [
      281,
      0,
      0,
      696
    ],
    "vertexCount": 281,
    "indexCount": 696,
    "triangleCount": 232,
    "drawRanges": [
      {
        "start": 0,
        "count": 696,
        "state": {
          "alphaMode": "BLEND",
          "doubleSided": false,
          "shade": "smooth",
          "depthTest": true,
          "drawEnabled": true,
          "draped": false,
          "layerGroupDraped": null,
          "layerGroup": null,
          "lodDraped": null,
          "emissionRgb": [
            0,
            0,
            0
          ],
          "lodRange": null,
          "shinyRatio": null
        }
      }
    ],
    "parameterizedLightCount": 2,
    "parameterizedLights": [
      {
        "name": "sodium_flood_XYZBTSS",
        "position": [
          -13.77803993,
          9.81353378,
          -22.54973412
        ],
        "params": [
          0,
          -1,
          0,
          1,
          200,
          0.5,
          10
        ],
        "raw": "LIGHT_PARAM\tsodium_flood_XYZBTSS\t-13.77803993\t9.81353378\t-22.54973412\t0 -1 0  1  200  0.5  10"
      },
      {
        "name": "sodium_flood_XYZBTSS",
        "position": [
          14.59706497,
          9.81353378,
          -22.54973412
        ],
        "params": [
          0,
          -1,
          0,
          1,
          200,
          0.5,
          10
        ],
        "raw": "LIGHT_PARAM\tsodium_flood_XYZBTSS\t14.59706497\t9.81353378\t-22.54973412\t0 -1 0  1  200  0.5  10"
      }
    ],
    "vertexLightCount": 0,
    "vertexLights": [],
    "namedLightCount": 0,
    "namedLights": [],
    "sourceBounds": {
      "min": [
        -41.90345001,
        0.00000103,
        -20.00683022
      ],
      "max": [
        41.90345001,
        11,
        20.00683022
      ]
    },
    "geometryPolicy": "preserve-source-positions-normals-uvs-indices-no-remesh-no-decimation",
    "drawStatePolicy": "preserve-supported-per-TRIS-blend-and-cull-state;reject-unsupported-render-state",
    "textureCoordinatePolicy": "preserve-source-uv-buffer-and-flip-v-at-material-level-for-gltf-upper-left-image-origin"
  }
}
