{
  "asset": {
    "version": "2.0",
    "generator": "RampReady exact X-Plane OBJ8 converter v2"
  },
  "extensionsUsed": [
    "KHR_texture_transform"
  ],
  "buffers": [
    {
      "uri": "Ramp_1_Stripes_nL.bin",
      "byteLength": 3920
    }
  ],
  "bufferViews": [
    {
      "buffer": 0,
      "byteOffset": 0,
      "byteLength": 1344,
      "target": 34962
    },
    {
      "buffer": 0,
      "byteOffset": 1344,
      "byteLength": 1344,
      "target": 34962
    },
    {
      "buffer": 0,
      "byteOffset": 2688,
      "byteLength": 896,
      "target": 34962
    },
    {
      "buffer": 0,
      "byteOffset": 3584,
      "byteLength": 336,
      "target": 34963
    }
  ],
  "accessors": [
    {
      "bufferView": 0,
      "componentType": 5126,
      "count": 112,
      "type": "VEC3",
      "min": [
        -10.53106308,
        0,
        -0.59163541
      ],
      "max": [
        10.53105164,
        0,
        42.19081116
      ]
    },
    {
      "bufferView": 1,
      "componentType": 5126,
      "count": 112,
      "type": "VEC3",
      "min": [
        0,
        0.99999994,
        0
      ],
      "max": [
        0,
        1,
        0
      ]
    },
    {
      "bufferView": 2,
      "componentType": 5126,
      "count": 112,
      "type": "VEC2",
      "min": [
        0.00200434,
        -5.05744076
      ],
      "max": [
        0.79894817,
        5.09832478
      ]
    },
    {
      "bufferView": 3,
      "byteOffset": 12,
      "componentType": 5123,
      "count": 90,
      "type": "SCALAR",
      "min": [
        4
      ],
      "max": [
        63
      ]
    },
    {
      "bufferView": 3,
      "byteOffset": 192,
      "componentType": 5123,
      "count": 72,
      "type": "SCALAR",
      "min": [
        64
      ],
      "max": [
        111
      ]
    },
    {
      "bufferView": 3,
      "byteOffset": 0,
      "componentType": 5123,
      "count": 6,
      "type": "SCALAR",
      "min": [
        0
      ],
      "max": [
        3
      ]
    }
  ],
  "images": [
    {
      "uri": "Ramp_1.png"
    }
  ],
  "samplers": [
    {
      "magFilter": 9729,
      "minFilter": 9987,
      "wrapS": 10497,
      "wrapT": 10497
    }
  ],
  "textures": [
    {
      "sampler": 0,
      "source": 0
    }
  ],
  "materials": [
    {
      "name": "Ramp_1_Stripes_nL source material 0",
      "pbrMetallicRoughness": {
        "baseColorTexture": {
          "index": 0,
          "extensions": {
            "KHR_texture_transform": {
              "offset": [
                0,
                1
              ],
              "scale": [
                1,
                -1
              ]
            }
          }
        },
        "metallicFactor": 0,
        "roughnessFactor": 1
      },
      "doubleSided": false,
      "alphaMode": "BLEND",
      "emissiveFactor": [
        0,
        0,
        0
      ],
      "extras": {
        "xPlaneDraped": true,
        "xPlaneLayerGroupDraped": null,
        "xPlaneLayerGroup": null,
        "xPlaneLodDraped": null,
        "xPlaneEmissionRgb": [
          0,
          0,
          0
        ],
        "xPlaneLodRange": null,
        "xPlaneShinyRatio": null,
        "xPlaneGlobalSpecular": 0.5,
        "xPlaneGlobalAlphaCutoff": null,
        "xPlaneNormalMetalness": false
      }
    }
  ],
  "meshes": [
    {
      "name": "Ramp_1_Stripes_nL",
      "primitives": [
        {
          "attributes": {
            "POSITION": 0,
            "NORMAL": 1,
            "TEXCOORD_0": 2
          },
          "indices": 3,
          "material": 0,
          "mode": 4,
          "extras": {
            "xPlaneDrawState": {
              "alphaMode": "BLEND",
              "alphaCutoff": null,
              "doubleSided": false,
              "shade": "smooth",
              "depthTest": true,
              "drawEnabled": true,
              "draped": true,
              "layerGroupDraped": null,
              "layerGroup": null,
              "lodDraped": null,
              "emissionRgb": [
                0,
                0,
                0
              ],
              "lodRange": null,
              "shinyRatio": null,
              "xPlaneRestTranslation": [
                0,
                0,
                0
              ]
            }
          }
        },
        {
          "attributes": {
            "POSITION": 0,
            "NORMAL": 1,
            "TEXCOORD_0": 2
          },
          "indices": 4,
          "material": 0,
          "mode": 4,
          "extras": {
            "xPlaneDrawState": {
              "alphaMode": "BLEND",
              "alphaCutoff": null,
              "doubleSided": false,
              "shade": "smooth",
              "depthTest": true,
              "drawEnabled": true,
              "draped": true,
              "layerGroupDraped": null,
              "layerGroup": null,
              "lodDraped": null,
              "emissionRgb": [
                0,
                0,
                0
              ],
              "lodRange": null,
              "shinyRatio": null,
              "xPlaneRestTranslation": [
                0,
                0,
                0
              ]
            }
          }
        },
        {
          "attributes": {
            "POSITION": 0,
            "NORMAL": 1,
            "TEXCOORD_0": 2
          },
          "indices": 5,
          "material": 0,
          "mode": 4,
          "extras": {
            "xPlaneDrawState": {
              "alphaMode": "BLEND",
              "alphaCutoff": null,
              "doubleSided": false,
              "shade": "smooth",
              "depthTest": true,
              "drawEnabled": true,
              "draped": true,
              "layerGroupDraped": null,
              "layerGroup": null,
              "lodDraped": null,
              "emissionRgb": [
                0,
                0,
                0
              ],
              "lodRange": null,
              "shinyRatio": null,
              "xPlaneRestTranslation": [
                0,
                0,
                0
              ]
            }
          }
        }
      ]
    }
  ],
  "nodes": [
    {
      "name": "Ramp_1_Stripes_nL",
      "mesh": 0,
      "extras": {
        "xPlaneParameterizedLights": [],
        "xPlaneVertexLights": [],
        "xPlaneNamedLights": [],
        "xPlaneGlobalNoShadow": false,
        "xPlaneGlobalLodRange": null,
        "xPlaneTilted": false,
        "xPlaneGlobalSpecular": 0.5,
        "xPlaneWeatherTexture": null,
        "xPlaneWeatherTransparent": true
      }
    }
  ],
  "scenes": [
    {
      "nodes": [
        0
      ]
    }
  ],
  "scene": 0,
  "extras": {
    "sourceFormat": "X-Plane OBJ8",
    "sourceFile": "Ramp_1_Stripes_nL.obj",
    "sourceTexture": null,
    "sourceDrapedTexture": "Ramp_1.png",
    "sourceLitTexture": null,
    "sourceNormalTexture": null,
    "sourceNormalScale": null,
    "sourceDrapedNormalTexture": null,
    "sourceDrapedNormalScale": null,
    "sourceWeatherTexture": null,
    "sourceWeatherTransparent": true,
    "globalNoShadow": false,
    "globalLodRange": null,
    "sourceTilted": false,
    "globalSpecular": 0.5,
    "globalAlphaCutoff": null,
    "normalMetalness": false,
    "pointCounts": [
      112,
      0,
      0,
      168
    ],
    "vertexCount": 112,
    "indexCount": 168,
    "triangleCount": 56,
    "drawRanges": [
      {
        "start": 6,
        "count": 90,
        "state": {
          "alphaMode": "BLEND",
          "alphaCutoff": null,
          "doubleSided": false,
          "shade": "smooth",
          "depthTest": true,
          "drawEnabled": true,
          "draped": true,
          "layerGroupDraped": null,
          "layerGroup": null,
          "lodDraped": null,
          "emissionRgb": [
            0,
            0,
            0
          ],
          "lodRange": null,
          "shinyRatio": null,
          "xPlaneRestTranslation": [
            0,
            0,
            0
          ]
        }
      },
      {
        "start": 96,
        "count": 72,
        "state": {
          "alphaMode": "BLEND",
          "alphaCutoff": null,
          "doubleSided": false,
          "shade": "smooth",
          "depthTest": true,
          "drawEnabled": true,
          "draped": true,
          "layerGroupDraped": null,
          "layerGroup": null,
          "lodDraped": null,
          "emissionRgb": [
            0,
            0,
            0
          ],
          "lodRange": null,
          "shinyRatio": null,
          "xPlaneRestTranslation": [
            0,
            0,
            0
          ]
        }
      },
      {
        "start": 0,
        "count": 6,
        "state": {
          "alphaMode": "BLEND",
          "alphaCutoff": null,
          "doubleSided": false,
          "shade": "smooth",
          "depthTest": true,
          "drawEnabled": true,
          "draped": true,
          "layerGroupDraped": null,
          "layerGroup": null,
          "lodDraped": null,
          "emissionRgb": [
            0,
            0,
            0
          ],
          "lodRange": null,
          "shinyRatio": null,
          "xPlaneRestTranslation": [
            0,
            0,
            0
          ]
        }
      }
    ],
    "parameterizedLightCount": 0,
    "parameterizedLights": [],
    "vertexLightCount": 0,
    "vertexLights": [],
    "namedLightCount": 0,
    "namedLights": [],
    "sourceBounds": {
      "min": [
        -10.53106308,
        0,
        -0.59163541
      ],
      "max": [
        10.53105164,
        0,
        42.19081116
      ]
    },
    "geometryPolicy": "preserve-source-positions-normals-uvs-topology-no-remesh-no-decimation;convert-X-Plane-clockwise-TRIS-to-glTF-counterclockwise-winding",
    "drawStatePolicy": "preserve-supported-per-TRIS-blend-and-cull-state;honor-IF-NOT-SCENERY_SHADOWS-and-IF-NOT-GLOBAL_SHADOWS;preserve-GLOBAL_LOD-and-TILTED-source-semantics;preserve-WEATHER_TRANSPARENT-as-source-metadata-with-no-browser-weather-overlay;bake-exact-zero-distance-GroundTraffic-rest-translation-including-keyframed-translations;reject-unsupported-render-state",
    "sceneryShadowsEnabled": true,
    "globalShadowsEnabled": true,
    "textureCoordinatePolicy": "preserve-source-uv-buffer-and-flip-v-at-material-level-for-gltf-upper-left-image-origin"
  }
}
