{
  "asset": {
    "version": "2.0",
    "generator": "RampReady exact X-Plane OBJ8 converter v2"
  },
  "extensionsUsed": [
    "KHR_texture_transform"
  ],
  "buffers": [
    {
      "uri": "Building6.bin",
      "byteLength": 10728
    }
  ],
  "bufferViews": [
    {
      "buffer": 0,
      "byteOffset": 0,
      "byteLength": 3672,
      "target": 34962
    },
    {
      "buffer": 0,
      "byteOffset": 3672,
      "byteLength": 3672,
      "target": 34962
    },
    {
      "buffer": 0,
      "byteOffset": 7344,
      "byteLength": 2448,
      "target": 34962
    },
    {
      "buffer": 0,
      "byteOffset": 9792,
      "byteLength": 936,
      "target": 34963
    }
  ],
  "accessors": [
    {
      "bufferView": 0,
      "componentType": 5126,
      "count": 306,
      "type": "VEC3",
      "min": [
        -43.25720596,
        -0.50000536,
        -34.90594482
      ],
      "max": [
        43.25720596,
        13,
        30.759161
      ]
    },
    {
      "bufferView": 1,
      "componentType": 5126,
      "count": 306,
      "type": "VEC3",
      "min": [
        -1,
        0,
        -1
      ],
      "max": [
        1,
        1,
        1
      ]
    },
    {
      "bufferView": 2,
      "componentType": 5126,
      "count": 306,
      "type": "VEC2",
      "min": [
        0.00097594,
        0.00097305
      ],
      "max": [
        0.99902403,
        0.99902689
      ]
    },
    {
      "bufferView": 3,
      "byteOffset": 0,
      "componentType": 5123,
      "count": 468,
      "type": "SCALAR",
      "min": [
        0
      ],
      "max": [
        305
      ]
    }
  ],
  "images": [
    {
      "uri": "Building6.png"
    }
  ],
  "samplers": [
    {
      "magFilter": 9729,
      "minFilter": 9987,
      "wrapS": 10497,
      "wrapT": 10497
    }
  ],
  "textures": [
    {
      "sampler": 0,
      "source": 0
    }
  ],
  "materials": [
    {
      "name": "Building6 source material 0",
      "pbrMetallicRoughness": {
        "baseColorTexture": {
          "index": 0,
          "extensions": {
            "KHR_texture_transform": {
              "offset": [
                0,
                1
              ],
              "scale": [
                1,
                -1
              ]
            }
          }
        },
        "metallicFactor": 0,
        "roughnessFactor": 1
      },
      "doubleSided": false,
      "alphaMode": "BLEND",
      "emissiveFactor": [
        0,
        0,
        0
      ],
      "extras": {
        "xPlaneDraped": false,
        "xPlaneLayerGroupDraped": null,
        "xPlaneLayerGroup": null,
        "xPlaneLodDraped": null,
        "xPlaneEmissionRgb": [
          0,
          0,
          0
        ],
        "xPlaneLodRange": null,
        "xPlaneShinyRatio": null,
        "xPlaneGlobalSpecular": null
      }
    }
  ],
  "meshes": [
    {
      "name": "Building6",
      "primitives": [
        {
          "attributes": {
            "POSITION": 0,
            "NORMAL": 1,
            "TEXCOORD_0": 2
          },
          "indices": 3,
          "material": 0,
          "mode": 4,
          "extras": {
            "xPlaneDrawState": {
              "alphaMode": "BLEND",
              "doubleSided": false,
              "shade": "smooth",
              "depthTest": true,
              "drawEnabled": true,
              "draped": false,
              "layerGroupDraped": null,
              "layerGroup": null,
              "lodDraped": null,
              "emissionRgb": [
                0,
                0,
                0
              ],
              "lodRange": null,
              "shinyRatio": null
            }
          }
        }
      ]
    }
  ],
  "nodes": [
    {
      "name": "Building6",
      "mesh": 0,
      "extras": {
        "xPlaneParameterizedLights": [],
        "xPlaneVertexLights": [
          {
            "position": [
              0,
              159.67745972,
              -0.00000698
            ],
            "rgb": [
              1,
              1,
              1
            ],
            "raw": "VLIGHT\t0.00000000\t159.67745972\t-0.00000698\t1.00000000\t1.00000000\t1.00000000"
          }
        ],
        "xPlaneNamedLights": [],
        "xPlaneGlobalNoShadow": false,
        "xPlaneGlobalSpecular": null
      }
    }
  ],
  "scenes": [
    {
      "nodes": [
        0
      ]
    }
  ],
  "scene": 0,
  "extras": {
    "sourceFormat": "X-Plane OBJ8",
    "sourceFile": "Building6.obj",
    "sourceTexture": "Building6.png",
    "sourceLitTexture": null,
    "sourceNormalTexture": null,
    "sourceNormalScale": null,
    "globalNoShadow": false,
    "globalSpecular": null,
    "pointCounts": [
      306,
      0,
      1,
      468
    ],
    "vertexCount": 306,
    "indexCount": 468,
    "triangleCount": 156,
    "drawRanges": [
      {
        "start": 0,
        "count": 468,
        "state": {
          "alphaMode": "BLEND",
          "doubleSided": false,
          "shade": "smooth",
          "depthTest": true,
          "drawEnabled": true,
          "draped": false,
          "layerGroupDraped": null,
          "layerGroup": null,
          "lodDraped": null,
          "emissionRgb": [
            0,
            0,
            0
          ],
          "lodRange": null,
          "shinyRatio": null
        }
      }
    ],
    "parameterizedLightCount": 0,
    "parameterizedLights": [],
    "vertexLightCount": 1,
    "vertexLights": [
      {
        "position": [
          0,
          159.67745972,
          -0.00000698
        ],
        "rgb": [
          1,
          1,
          1
        ],
        "raw": "VLIGHT\t0.00000000\t159.67745972\t-0.00000698\t1.00000000\t1.00000000\t1.00000000"
      }
    ],
    "namedLightCount": 0,
    "namedLights": [],
    "sourceBounds": {
      "min": [
        -43.25720596,
        -0.50000536,
        -34.90594482
      ],
      "max": [
        43.25720596,
        13,
        30.759161
      ]
    },
    "geometryPolicy": "preserve-source-positions-normals-uvs-indices-no-remesh-no-decimation",
    "drawStatePolicy": "preserve-supported-per-TRIS-blend-and-cull-state;reject-unsupported-render-state",
    "textureCoordinatePolicy": "preserve-source-uv-buffer-and-flip-v-at-material-level-for-gltf-upper-left-image-origin"
  }
}
