{
  "asset": {
    "version": "2.0",
    "generator": "RampReady exact X-Plane OBJ8 converter v2"
  },
  "extensionsUsed": [
    "KHR_texture_transform"
  ],
  "buffers": [
    {
      "uri": "8.bin",
      "byteLength": 2040
    }
  ],
  "bufferViews": [
    {
      "buffer": 0,
      "byteOffset": 0,
      "byteLength": 720,
      "target": 34962
    },
    {
      "buffer": 0,
      "byteOffset": 720,
      "byteLength": 720,
      "target": 34962
    },
    {
      "buffer": 0,
      "byteOffset": 1440,
      "byteLength": 480,
      "target": 34962
    },
    {
      "buffer": 0,
      "byteOffset": 1920,
      "byteLength": 120,
      "target": 34963
    }
  ],
  "accessors": [
    {
      "bufferView": 0,
      "componentType": 5126,
      "count": 60,
      "type": "VEC3",
      "min": [
        -3.0850756,
        0,
        -8.9991388
      ],
      "max": [
        2.9149244,
        0,
        9.0008612
      ]
    },
    {
      "bufferView": 1,
      "componentType": 5126,
      "count": 60,
      "type": "VEC3",
      "min": [
        0,
        0.99999994,
        0
      ],
      "max": [
        0,
        1,
        0
      ]
    },
    {
      "bufferView": 2,
      "componentType": 5126,
      "count": 60,
      "type": "VEC2",
      "min": [
        0.34149098,
        0.056671977
      ],
      "max": [
        0.63209891,
        0.92849576
      ]
    },
    {
      "bufferView": 3,
      "byteOffset": 0,
      "componentType": 5123,
      "count": 60,
      "type": "SCALAR",
      "min": [
        0
      ],
      "max": [
        59
      ]
    }
  ],
  "images": [
    {
      "uri": "paint_white_clean.png"
    },
    {
      "uri": "paint_clean_NML.png"
    }
  ],
  "samplers": [
    {
      "magFilter": 9729,
      "minFilter": 9987,
      "wrapS": 10497,
      "wrapT": 10497
    }
  ],
  "textures": [
    {
      "sampler": 0,
      "source": 0
    },
    {
      "sampler": 0,
      "source": 1
    }
  ],
  "materials": [
    {
      "name": "8 source material 0",
      "pbrMetallicRoughness": {
        "baseColorTexture": {
          "index": 0,
          "extensions": {
            "KHR_texture_transform": {
              "offset": [
                0,
                1
              ],
              "scale": [
                1,
                -1
              ]
            }
          }
        },
        "metallicFactor": 0,
        "roughnessFactor": 1
      },
      "doubleSided": false,
      "alphaMode": "BLEND",
      "emissiveFactor": [
        0,
        0,
        0
      ],
      "extras": {
        "xPlaneDraped": true,
        "xPlaneLayerGroupDraped": {
          "group": "markings",
          "offset": 0
        },
        "xPlaneLayerGroup": null,
        "xPlaneLodDraped": null,
        "xPlaneEmissionRgb": [
          0,
          0,
          0
        ],
        "xPlaneLodRange": [
          0,
          10000
        ],
        "xPlaneShinyRatio": null,
        "xPlaneGlobalSpecular": 0.5,
        "xPlaneGlobalAlphaCutoff": null,
        "xPlaneNormalMetalness": false
      },
      "normalTexture": {
        "index": 1,
        "extensions": {
          "KHR_texture_transform": {
            "offset": [
              0,
              1
            ],
            "scale": [
              1,
              -1
            ]
          }
        },
        "scale": 1
      }
    }
  ],
  "meshes": [
    {
      "name": "8",
      "primitives": [
        {
          "attributes": {
            "POSITION": 0,
            "NORMAL": 1,
            "TEXCOORD_0": 2
          },
          "indices": 3,
          "material": 0,
          "mode": 4,
          "extras": {
            "xPlaneDrawState": {
              "alphaMode": "BLEND",
              "alphaCutoff": null,
              "doubleSided": false,
              "shade": "smooth",
              "depthTest": true,
              "drawEnabled": true,
              "draped": true,
              "layerGroupDraped": {
                "group": "markings",
                "offset": 0
              },
              "layerGroup": null,
              "lodDraped": null,
              "emissionRgb": [
                0,
                0,
                0
              ],
              "lodRange": [
                0,
                10000
              ],
              "shinyRatio": null,
              "xPlaneRestTranslation": [
                0,
                0,
                0
              ]
            }
          }
        }
      ]
    }
  ],
  "nodes": [
    {
      "name": "8",
      "mesh": 0,
      "extras": {
        "xPlaneParameterizedLights": [],
        "xPlaneVertexLights": [],
        "xPlaneNamedLights": [],
        "xPlaneGlobalNoShadow": true,
        "xPlaneGlobalSpecular": 0.5,
        "xPlaneWeatherTexture": null,
        "xPlaneWeatherTransparent": false
      }
    }
  ],
  "scenes": [
    {
      "nodes": [
        0
      ]
    }
  ],
  "scene": 0,
  "extras": {
    "sourceFormat": "X-Plane OBJ8",
    "sourceFile": "8.obj",
    "sourceTexture": "../../../paint/textures/paint_white_clean.png",
    "sourceDrapedTexture": null,
    "sourceLitTexture": null,
    "sourceNormalTexture": "../../../paint/textures/paint_clean_NML.png",
    "sourceNormalScale": 1,
    "sourceDrapedNormalTexture": null,
    "sourceDrapedNormalScale": null,
    "sourceWeatherTexture": null,
    "sourceWeatherTransparent": false,
    "globalNoShadow": true,
    "globalSpecular": 0.5,
    "globalAlphaCutoff": null,
    "normalMetalness": false,
    "pointCounts": [
      60,
      0,
      0,
      60
    ],
    "vertexCount": 60,
    "indexCount": 60,
    "triangleCount": 20,
    "drawRanges": [
      {
        "start": 0,
        "count": 60,
        "state": {
          "alphaMode": "BLEND",
          "alphaCutoff": null,
          "doubleSided": false,
          "shade": "smooth",
          "depthTest": true,
          "drawEnabled": true,
          "draped": true,
          "layerGroupDraped": {
            "group": "markings",
            "offset": 0
          },
          "layerGroup": null,
          "lodDraped": null,
          "emissionRgb": [
            0,
            0,
            0
          ],
          "lodRange": [
            0,
            10000
          ],
          "shinyRatio": null,
          "xPlaneRestTranslation": [
            0,
            0,
            0
          ]
        }
      }
    ],
    "parameterizedLightCount": 0,
    "parameterizedLights": [],
    "vertexLightCount": 0,
    "vertexLights": [],
    "namedLightCount": 0,
    "namedLights": [],
    "sourceBounds": {
      "min": [
        -3.0850756,
        0,
        -8.9991388
      ],
      "max": [
        2.9149244,
        0,
        9.0008612
      ]
    },
    "geometryPolicy": "preserve-source-positions-normals-uvs-topology-no-remesh-no-decimation;convert-X-Plane-clockwise-TRIS-to-glTF-counterclockwise-winding",
    "drawStatePolicy": "preserve-supported-per-TRIS-blend-and-cull-state;honor-IF-NOT-SCENERY_SHADOWS;preserve-WEATHER_TRANSPARENT-as-source-metadata-with-no-browser-weather-overlay;bake-exact-zero-distance-GroundTraffic-rest-translation-including-keyframed-translations;reject-unsupported-render-state",
    "sceneryShadowsEnabled": true,
    "textureCoordinatePolicy": "preserve-source-uv-buffer-and-flip-v-at-material-level-for-gltf-upper-left-image-origin"
  }
}
