{
  "asset": {
    "version": "2.0",
    "generator": "RampReady exact X-Plane OBJ8 converter v2"
  },
  "extensionsUsed": [
    "KHR_texture_transform"
  ],
  "buffers": [
    {
      "uri": "Highrise5.bin",
      "byteLength": 2048
    }
  ],
  "bufferViews": [
    {
      "buffer": 0,
      "byteOffset": 0,
      "byteLength": 696,
      "target": 34962
    },
    {
      "buffer": 0,
      "byteOffset": 696,
      "byteLength": 696,
      "target": 34962
    },
    {
      "buffer": 0,
      "byteOffset": 1392,
      "byteLength": 464,
      "target": 34962
    },
    {
      "buffer": 0,
      "byteOffset": 1856,
      "byteLength": 192,
      "target": 34963
    }
  ],
  "accessors": [
    {
      "bufferView": 0,
      "componentType": 5126,
      "count": 58,
      "type": "VEC3",
      "min": [
        -48.19409943,
        -7.6e-7,
        -17.38589096
      ],
      "max": [
        31.33324242,
        110,
        17.38588524
      ]
    },
    {
      "bufferView": 1,
      "componentType": 5126,
      "count": 58,
      "type": "VEC3",
      "min": [
        -1,
        -1.8e-7,
        -1
      ],
      "max": [
        1,
        1,
        1
      ]
    },
    {
      "bufferView": 2,
      "componentType": 5126,
      "count": 58,
      "type": "VEC2",
      "min": [
        0.00038768,
        0.00008957
      ],
      "max": [
        0.95612013,
        0.99991041
      ]
    },
    {
      "bufferView": 3,
      "byteOffset": 0,
      "componentType": 5123,
      "count": 96,
      "type": "SCALAR",
      "min": [
        0
      ],
      "max": [
        57
      ]
    }
  ],
  "images": [
    {
      "uri": "Highrise5.png"
    },
    {
      "uri": "Highrise5_LIT.png"
    }
  ],
  "samplers": [
    {
      "magFilter": 9729,
      "minFilter": 9987,
      "wrapS": 10497,
      "wrapT": 10497
    }
  ],
  "textures": [
    {
      "sampler": 0,
      "source": 0
    },
    {
      "sampler": 0,
      "source": 1
    }
  ],
  "materials": [
    {
      "name": "Highrise5 source material 0",
      "pbrMetallicRoughness": {
        "baseColorTexture": {
          "index": 0,
          "extensions": {
            "KHR_texture_transform": {
              "offset": [
                0,
                1
              ],
              "scale": [
                1,
                -1
              ]
            }
          }
        },
        "metallicFactor": 0,
        "roughnessFactor": 1
      },
      "doubleSided": false,
      "alphaMode": "BLEND",
      "emissiveFactor": [
        1,
        1,
        1
      ],
      "extras": {
        "xPlaneDraped": false,
        "xPlaneLayerGroupDraped": null,
        "xPlaneLayerGroup": null,
        "xPlaneLodDraped": null,
        "xPlaneEmissionRgb": [
          0,
          0,
          0
        ],
        "xPlaneLodRange": null,
        "xPlaneShinyRatio": null,
        "xPlaneGlobalSpecular": null
      },
      "emissiveTexture": {
        "index": 1,
        "extensions": {
          "KHR_texture_transform": {
            "offset": [
              0,
              1
            ],
            "scale": [
              1,
              -1
            ]
          }
        }
      }
    }
  ],
  "meshes": [
    {
      "name": "Highrise5",
      "primitives": [
        {
          "attributes": {
            "POSITION": 0,
            "NORMAL": 1,
            "TEXCOORD_0": 2
          },
          "indices": 3,
          "material": 0,
          "mode": 4,
          "extras": {
            "xPlaneDrawState": {
              "alphaMode": "BLEND",
              "doubleSided": false,
              "shade": "smooth",
              "depthTest": true,
              "drawEnabled": true,
              "draped": false,
              "layerGroupDraped": null,
              "layerGroup": null,
              "lodDraped": null,
              "emissionRgb": [
                0,
                0,
                0
              ],
              "lodRange": null,
              "shinyRatio": null
            }
          }
        }
      ]
    }
  ],
  "nodes": [
    {
      "name": "Highrise5",
      "mesh": 0,
      "extras": {
        "xPlaneParameterizedLights": [],
        "xPlaneVertexLights": [],
        "xPlaneNamedLights": [],
        "xPlaneGlobalNoShadow": false,
        "xPlaneGlobalSpecular": null
      }
    }
  ],
  "scenes": [
    {
      "nodes": [
        0
      ]
    }
  ],
  "scene": 0,
  "extras": {
    "sourceFormat": "X-Plane OBJ8",
    "sourceFile": "Highrise5.obj",
    "sourceTexture": "Highrise5.png",
    "sourceLitTexture": "Highrise5_LIT.png",
    "sourceNormalTexture": null,
    "sourceNormalScale": null,
    "globalNoShadow": false,
    "globalSpecular": null,
    "pointCounts": [
      58,
      0,
      0,
      96
    ],
    "vertexCount": 58,
    "indexCount": 96,
    "triangleCount": 32,
    "drawRanges": [
      {
        "start": 0,
        "count": 96,
        "state": {
          "alphaMode": "BLEND",
          "doubleSided": false,
          "shade": "smooth",
          "depthTest": true,
          "drawEnabled": true,
          "draped": false,
          "layerGroupDraped": null,
          "layerGroup": null,
          "lodDraped": null,
          "emissionRgb": [
            0,
            0,
            0
          ],
          "lodRange": null,
          "shinyRatio": null
        }
      }
    ],
    "parameterizedLightCount": 0,
    "parameterizedLights": [],
    "vertexLightCount": 0,
    "vertexLights": [],
    "namedLightCount": 0,
    "namedLights": [],
    "sourceBounds": {
      "min": [
        -48.19409943,
        -7.6e-7,
        -17.38589096
      ],
      "max": [
        31.33324242,
        110,
        17.38588524
      ]
    },
    "geometryPolicy": "preserve-source-positions-normals-uvs-indices-no-remesh-no-decimation",
    "drawStatePolicy": "preserve-supported-per-TRIS-blend-and-cull-state;reject-unsupported-render-state",
    "textureCoordinatePolicy": "preserve-source-uv-buffer-and-flip-v-at-material-level-for-gltf-upper-left-image-origin"
  }
}
