{
  "asset": {
    "version": "2.0",
    "generator": "RampReady exact X-Plane OBJ8 converter v2"
  },
  "extensionsUsed": [
    "KHR_texture_transform"
  ],
  "buffers": [
    {
      "uri": "jw_cabin_1b.bin",
      "byteLength": 60620
    }
  ],
  "bufferViews": [
    {
      "buffer": 0,
      "byteOffset": 0,
      "byteLength": 20712,
      "target": 34962
    },
    {
      "buffer": 0,
      "byteOffset": 20712,
      "byteLength": 20712,
      "target": 34962
    },
    {
      "buffer": 0,
      "byteOffset": 41424,
      "byteLength": 13808,
      "target": 34962
    },
    {
      "buffer": 0,
      "byteOffset": 55232,
      "byteLength": 5388,
      "target": 34963
    }
  ],
  "accessors": [
    {
      "bufferView": 0,
      "componentType": 5126,
      "count": 1726,
      "type": "VEC3",
      "min": [
        -1.5,
        0,
        -1.5
      ],
      "max": [
        2.33,
        7.995,
        8.299
      ]
    },
    {
      "bufferView": 1,
      "componentType": 5126,
      "count": 1726,
      "type": "VEC3",
      "min": [
        -1,
        -1,
        -1
      ],
      "max": [
        1,
        1,
        1
      ]
    },
    {
      "bufferView": 2,
      "componentType": 5126,
      "count": 1726,
      "type": "VEC2",
      "min": [
        0.00098,
        0.12598
      ],
      "max": [
        0.99903,
        0.99902
      ]
    },
    {
      "bufferView": 3,
      "byteOffset": 0,
      "componentType": 5123,
      "count": 2442,
      "type": "SCALAR",
      "min": [
        0
      ],
      "max": [
        1583
      ]
    },
    {
      "bufferView": 3,
      "byteOffset": 4884,
      "componentType": 5123,
      "count": 252,
      "type": "SCALAR",
      "min": [
        1584
      ],
      "max": [
        1725
      ]
    }
  ],
  "images": [
    {
      "uri": "../textures/jetway_1_ALB.png"
    },
    {
      "uri": "../textures/jetway_1_LIT.png"
    },
    {
      "uri": "../textures/jetway_1_NML.png"
    }
  ],
  "samplers": [
    {
      "magFilter": 9729,
      "minFilter": 9987,
      "wrapS": 10497,
      "wrapT": 10497
    }
  ],
  "textures": [
    {
      "sampler": 0,
      "source": 0
    },
    {
      "sampler": 0,
      "source": 1
    },
    {
      "sampler": 0,
      "source": 2
    }
  ],
  "materials": [
    {
      "name": "jw_cabin_1b source material 0",
      "pbrMetallicRoughness": {
        "baseColorTexture": {
          "index": 0,
          "extensions": {
            "KHR_texture_transform": {
              "offset": [
                0,
                1
              ],
              "scale": [
                1,
                -1
              ]
            }
          }
        },
        "metallicFactor": 0,
        "roughnessFactor": 1
      },
      "doubleSided": true,
      "alphaMode": "MASK",
      "alphaCutoff": 0.5,
      "emissiveFactor": [
        1,
        1,
        1
      ],
      "extras": {
        "xPlaneDraped": false,
        "xPlaneLayerGroupDraped": null,
        "xPlaneLayerGroup": null,
        "xPlaneLodDraped": null,
        "xPlaneEmissionRgb": [
          0,
          0,
          0
        ],
        "xPlaneLodRange": [
          0,
          500
        ],
        "xPlaneShinyRatio": null,
        "xPlaneGlobalSpecular": 1,
        "xPlaneGlobalAlphaCutoff": 0.5,
        "xPlaneNormalMetalness": false
      },
      "emissiveTexture": {
        "index": 1,
        "extensions": {
          "KHR_texture_transform": {
            "offset": [
              0,
              1
            ],
            "scale": [
              1,
              -1
            ]
          }
        }
      },
      "normalTexture": {
        "index": 2,
        "extensions": {
          "KHR_texture_transform": {
            "offset": [
              0,
              1
            ],
            "scale": [
              1,
              -1
            ]
          }
        },
        "scale": 1
      }
    },
    {
      "name": "jw_cabin_1b source material 1",
      "pbrMetallicRoughness": {
        "baseColorTexture": {
          "index": 0,
          "extensions": {
            "KHR_texture_transform": {
              "offset": [
                0,
                1
              ],
              "scale": [
                1,
                -1
              ]
            }
          }
        },
        "metallicFactor": 0,
        "roughnessFactor": 1
      },
      "doubleSided": true,
      "alphaMode": "MASK",
      "alphaCutoff": 0.5,
      "emissiveFactor": [
        1,
        1,
        1
      ],
      "extras": {
        "xPlaneDraped": false,
        "xPlaneLayerGroupDraped": null,
        "xPlaneLayerGroup": null,
        "xPlaneLodDraped": null,
        "xPlaneEmissionRgb": [
          0,
          0,
          0
        ],
        "xPlaneLodRange": [
          0,
          3000
        ],
        "xPlaneShinyRatio": null,
        "xPlaneGlobalSpecular": 1,
        "xPlaneGlobalAlphaCutoff": 0.5,
        "xPlaneNormalMetalness": false
      },
      "emissiveTexture": {
        "index": 1,
        "extensions": {
          "KHR_texture_transform": {
            "offset": [
              0,
              1
            ],
            "scale": [
              1,
              -1
            ]
          }
        }
      },
      "normalTexture": {
        "index": 2,
        "extensions": {
          "KHR_texture_transform": {
            "offset": [
              0,
              1
            ],
            "scale": [
              1,
              -1
            ]
          }
        },
        "scale": 1
      }
    }
  ],
  "meshes": [
    {
      "name": "jw_cabin_1b",
      "primitives": [
        {
          "attributes": {
            "POSITION": 0,
            "NORMAL": 1,
            "TEXCOORD_0": 2
          },
          "indices": 3,
          "material": 0,
          "mode": 4,
          "extras": {
            "xPlaneDrawState": {
              "alphaMode": "OPAQUE",
              "doubleSided": true,
              "shade": "smooth",
              "depthTest": true,
              "drawEnabled": true,
              "draped": false,
              "layerGroupDraped": null,
              "layerGroup": null,
              "lodDraped": null,
              "emissionRgb": [
                0,
                0,
                0
              ],
              "lodRange": [
                0,
                500
              ],
              "shinyRatio": null
            }
          }
        },
        {
          "attributes": {
            "POSITION": 0,
            "NORMAL": 1,
            "TEXCOORD_0": 2
          },
          "indices": 4,
          "material": 1,
          "mode": 4,
          "extras": {
            "xPlaneDrawState": {
              "alphaMode": "OPAQUE",
              "doubleSided": true,
              "shade": "smooth",
              "depthTest": true,
              "drawEnabled": true,
              "draped": false,
              "layerGroupDraped": null,
              "layerGroup": null,
              "lodDraped": null,
              "emissionRgb": [
                0,
                0,
                0
              ],
              "lodRange": [
                0,
                3000
              ],
              "shinyRatio": null
            }
          }
        }
      ]
    }
  ],
  "nodes": [
    {
      "name": "jw_cabin_1b",
      "mesh": 0,
      "extras": {
        "xPlaneParameterizedLights": [],
        "xPlaneVertexLights": [],
        "xPlaneNamedLights": [],
        "xPlaneGlobalNoShadow": false,
        "xPlaneGlobalSpecular": 1,
        "xPlaneWeatherTexture": null
      }
    }
  ],
  "scenes": [
    {
      "nodes": [
        0
      ]
    }
  ],
  "scene": 0,
  "extras": {
    "sourceFormat": "X-Plane OBJ8",
    "sourceFile": "jw_cabin_1b.obj",
    "sourceTexture": "../../textures/jetway_1_ALB.png",
    "sourceLitTexture": "../../textures/jetway_1_LIT.png",
    "sourceNormalTexture": "../../textures/jetway_1_NML.png",
    "sourceNormalScale": 1,
    "sourceWeatherTexture": null,
    "globalNoShadow": false,
    "globalSpecular": 1,
    "globalAlphaCutoff": 0.5,
    "normalMetalness": false,
    "pointCounts": [
      1726,
      0,
      0,
      2694
    ],
    "vertexCount": 1726,
    "indexCount": 2694,
    "triangleCount": 898,
    "drawRanges": [
      {
        "start": 0,
        "count": 2442,
        "state": {
          "alphaMode": "OPAQUE",
          "doubleSided": true,
          "shade": "smooth",
          "depthTest": true,
          "drawEnabled": true,
          "draped": false,
          "layerGroupDraped": null,
          "layerGroup": null,
          "lodDraped": null,
          "emissionRgb": [
            0,
            0,
            0
          ],
          "lodRange": [
            0,
            500
          ],
          "shinyRatio": null
        }
      },
      {
        "start": 2442,
        "count": 252,
        "state": {
          "alphaMode": "OPAQUE",
          "doubleSided": true,
          "shade": "smooth",
          "depthTest": true,
          "drawEnabled": true,
          "draped": false,
          "layerGroupDraped": null,
          "layerGroup": null,
          "lodDraped": null,
          "emissionRgb": [
            0,
            0,
            0
          ],
          "lodRange": [
            0,
            3000
          ],
          "shinyRatio": null
        }
      }
    ],
    "parameterizedLightCount": 0,
    "parameterizedLights": [],
    "vertexLightCount": 0,
    "vertexLights": [],
    "namedLightCount": 0,
    "namedLights": [],
    "sourceBounds": {
      "min": [
        -1.5,
        0,
        -1.5
      ],
      "max": [
        2.33,
        7.995,
        8.299
      ]
    },
    "geometryPolicy": "preserve-source-positions-normals-uvs-indices-no-remesh-no-decimation",
    "drawStatePolicy": "preserve-supported-per-TRIS-blend-and-cull-state;reject-unsupported-render-state",
    "textureCoordinatePolicy": "preserve-source-uv-buffer-and-flip-v-at-material-level-for-gltf-upper-left-image-origin"
  }
}
