{
  "asset": {
    "version": "2.0",
    "generator": "RampReady exact X-Plane OBJ8 converter v2"
  },
  "extensionsUsed": [
    "KHR_texture_transform"
  ],
  "buffers": [
    {
      "uri": "SDF_code_C_AAL.bin",
      "byteLength": 3468
    }
  ],
  "bufferViews": [
    {
      "buffer": 0,
      "byteOffset": 0,
      "byteLength": 1224,
      "target": 34962
    },
    {
      "buffer": 0,
      "byteOffset": 1224,
      "byteLength": 1224,
      "target": 34962
    },
    {
      "buffer": 0,
      "byteOffset": 2448,
      "byteLength": 816,
      "target": 34962
    },
    {
      "buffer": 0,
      "byteOffset": 3264,
      "byteLength": 204,
      "target": 34963
    }
  ],
  "accessors": [
    {
      "bufferView": 0,
      "componentType": 5126,
      "count": 102,
      "type": "VEC3",
      "min": [
        -3.1905007,
        0.0032931371,
        0.0027846098
      ],
      "max": [
        0.58240867,
        0.0032931371,
        2.4484055
      ]
    },
    {
      "bufferView": 1,
      "componentType": 5126,
      "count": 102,
      "type": "VEC3",
      "min": [
        0,
        0.99999994,
        0
      ],
      "max": [
        0,
        1,
        0
      ]
    },
    {
      "bufferView": 2,
      "componentType": 5126,
      "count": 102,
      "type": "VEC2",
      "min": [
        0.0017227225,
        0.077321246
      ],
      "max": [
        0.43256143,
        0.99754035
      ]
    },
    {
      "bufferView": 3,
      "byteOffset": 0,
      "componentType": 5123,
      "count": 6,
      "type": "SCALAR",
      "min": [
        0
      ],
      "max": [
        5
      ]
    },
    {
      "bufferView": 3,
      "byteOffset": 12,
      "componentType": 5123,
      "count": 6,
      "type": "SCALAR",
      "min": [
        6
      ],
      "max": [
        11
      ]
    },
    {
      "bufferView": 3,
      "byteOffset": 24,
      "componentType": 5123,
      "count": 6,
      "type": "SCALAR",
      "min": [
        12
      ],
      "max": [
        17
      ]
    },
    {
      "bufferView": 3,
      "byteOffset": 36,
      "componentType": 5123,
      "count": 6,
      "type": "SCALAR",
      "min": [
        18
      ],
      "max": [
        23
      ]
    },
    {
      "bufferView": 3,
      "byteOffset": 48,
      "componentType": 5123,
      "count": 6,
      "type": "SCALAR",
      "min": [
        24
      ],
      "max": [
        29
      ]
    },
    {
      "bufferView": 3,
      "byteOffset": 60,
      "componentType": 5123,
      "count": 6,
      "type": "SCALAR",
      "min": [
        30
      ],
      "max": [
        35
      ]
    },
    {
      "bufferView": 3,
      "byteOffset": 72,
      "componentType": 5123,
      "count": 6,
      "type": "SCALAR",
      "min": [
        36
      ],
      "max": [
        41
      ]
    },
    {
      "bufferView": 3,
      "byteOffset": 84,
      "componentType": 5123,
      "count": 6,
      "type": "SCALAR",
      "min": [
        42
      ],
      "max": [
        47
      ]
    },
    {
      "bufferView": 3,
      "byteOffset": 96,
      "componentType": 5123,
      "count": 6,
      "type": "SCALAR",
      "min": [
        48
      ],
      "max": [
        53
      ]
    },
    {
      "bufferView": 3,
      "byteOffset": 108,
      "componentType": 5123,
      "count": 48,
      "type": "SCALAR",
      "min": [
        54
      ],
      "max": [
        101
      ]
    }
  ],
  "images": [
    {
      "uri": "stop_markers.png"
    },
    {
      "uri": "paint_clean_NML.png"
    }
  ],
  "samplers": [
    {
      "magFilter": 9729,
      "minFilter": 9987,
      "wrapS": 10497,
      "wrapT": 10497
    }
  ],
  "textures": [
    {
      "sampler": 0,
      "source": 0
    },
    {
      "sampler": 0,
      "source": 1
    }
  ],
  "materials": [
    {
      "name": "SDF_code_C_AAL source material 0",
      "pbrMetallicRoughness": {
        "baseColorTexture": {
          "index": 0,
          "extensions": {
            "KHR_texture_transform": {
              "offset": [
                0,
                1
              ],
              "scale": [
                1,
                -1
              ]
            }
          }
        },
        "metallicFactor": 0,
        "roughnessFactor": 1
      },
      "doubleSided": false,
      "alphaMode": "BLEND",
      "emissiveFactor": [
        0,
        0,
        0
      ],
      "extras": {
        "xPlaneDraped": true,
        "xPlaneLayerGroupDraped": null,
        "xPlaneLayerGroup": null,
        "xPlaneLodDraped": null,
        "xPlaneEmissionRgb": [
          0,
          0,
          0
        ],
        "xPlaneLodRange": [
          0,
          10000
        ],
        "xPlaneShinyRatio": null,
        "xPlaneGlobalSpecular": 0.5,
        "xPlaneGlobalAlphaCutoff": null,
        "xPlaneNormalMetalness": false
      },
      "normalTexture": {
        "index": 1,
        "extensions": {
          "KHR_texture_transform": {
            "offset": [
              0,
              1
            ],
            "scale": [
              1,
              -1
            ]
          }
        },
        "scale": 1
      }
    }
  ],
  "meshes": [
    {
      "name": "SDF_code_C_AAL",
      "primitives": [
        {
          "attributes": {
            "POSITION": 0,
            "NORMAL": 1,
            "TEXCOORD_0": 2
          },
          "indices": 3,
          "material": 0,
          "mode": 4,
          "extras": {
            "xPlaneDrawState": {
              "alphaMode": "BLEND",
              "alphaCutoff": null,
              "doubleSided": false,
              "shade": "smooth",
              "depthTest": true,
              "drawEnabled": true,
              "draped": true,
              "layerGroupDraped": null,
              "layerGroup": null,
              "lodDraped": null,
              "emissionRgb": [
                0,
                0,
                0
              ],
              "lodRange": [
                0,
                10000
              ],
              "shinyRatio": null,
              "xPlaneRestTranslation": [
                0,
                0,
                0
              ]
            }
          }
        },
        {
          "attributes": {
            "POSITION": 0,
            "NORMAL": 1,
            "TEXCOORD_0": 2
          },
          "indices": 4,
          "material": 0,
          "mode": 4,
          "extras": {
            "xPlaneDrawState": {
              "alphaMode": "BLEND",
              "alphaCutoff": null,
              "doubleSided": false,
              "shade": "smooth",
              "depthTest": true,
              "drawEnabled": true,
              "draped": true,
              "layerGroupDraped": null,
              "layerGroup": null,
              "lodDraped": null,
              "emissionRgb": [
                0,
                0,
                0
              ],
              "lodRange": [
                0,
                10000
              ],
              "shinyRatio": null,
              "xPlaneRestTranslation": [
                0,
                0,
                0
              ]
            }
          }
        },
        {
          "attributes": {
            "POSITION": 0,
            "NORMAL": 1,
            "TEXCOORD_0": 2
          },
          "indices": 5,
          "material": 0,
          "mode": 4,
          "extras": {
            "xPlaneDrawState": {
              "alphaMode": "BLEND",
              "alphaCutoff": null,
              "doubleSided": false,
              "shade": "smooth",
              "depthTest": true,
              "drawEnabled": true,
              "draped": true,
              "layerGroupDraped": null,
              "layerGroup": null,
              "lodDraped": null,
              "emissionRgb": [
                0,
                0,
                0
              ],
              "lodRange": [
                0,
                10000
              ],
              "shinyRatio": null,
              "xPlaneRestTranslation": [
                0,
                0,
                0
              ]
            }
          }
        },
        {
          "attributes": {
            "POSITION": 0,
            "NORMAL": 1,
            "TEXCOORD_0": 2
          },
          "indices": 6,
          "material": 0,
          "mode": 4,
          "extras": {
            "xPlaneDrawState": {
              "alphaMode": "BLEND",
              "alphaCutoff": null,
              "doubleSided": false,
              "shade": "smooth",
              "depthTest": true,
              "drawEnabled": true,
              "draped": true,
              "layerGroupDraped": null,
              "layerGroup": null,
              "lodDraped": null,
              "emissionRgb": [
                0,
                0,
                0
              ],
              "lodRange": [
                0,
                10000
              ],
              "shinyRatio": null,
              "xPlaneRestTranslation": [
                0,
                0,
                0
              ]
            }
          }
        },
        {
          "attributes": {
            "POSITION": 0,
            "NORMAL": 1,
            "TEXCOORD_0": 2
          },
          "indices": 7,
          "material": 0,
          "mode": 4,
          "extras": {
            "xPlaneDrawState": {
              "alphaMode": "BLEND",
              "alphaCutoff": null,
              "doubleSided": false,
              "shade": "smooth",
              "depthTest": true,
              "drawEnabled": true,
              "draped": true,
              "layerGroupDraped": null,
              "layerGroup": null,
              "lodDraped": null,
              "emissionRgb": [
                0,
                0,
                0
              ],
              "lodRange": [
                0,
                10000
              ],
              "shinyRatio": null,
              "xPlaneRestTranslation": [
                0,
                0,
                0
              ]
            }
          }
        },
        {
          "attributes": {
            "POSITION": 0,
            "NORMAL": 1,
            "TEXCOORD_0": 2
          },
          "indices": 8,
          "material": 0,
          "mode": 4,
          "extras": {
            "xPlaneDrawState": {
              "alphaMode": "BLEND",
              "alphaCutoff": null,
              "doubleSided": false,
              "shade": "smooth",
              "depthTest": true,
              "drawEnabled": true,
              "draped": true,
              "layerGroupDraped": null,
              "layerGroup": null,
              "lodDraped": null,
              "emissionRgb": [
                0,
                0,
                0
              ],
              "lodRange": [
                0,
                10000
              ],
              "shinyRatio": null,
              "xPlaneRestTranslation": [
                0,
                0,
                0
              ]
            }
          }
        },
        {
          "attributes": {
            "POSITION": 0,
            "NORMAL": 1,
            "TEXCOORD_0": 2
          },
          "indices": 9,
          "material": 0,
          "mode": 4,
          "extras": {
            "xPlaneDrawState": {
              "alphaMode": "BLEND",
              "alphaCutoff": null,
              "doubleSided": false,
              "shade": "smooth",
              "depthTest": true,
              "drawEnabled": true,
              "draped": true,
              "layerGroupDraped": null,
              "layerGroup": null,
              "lodDraped": null,
              "emissionRgb": [
                0,
                0,
                0
              ],
              "lodRange": [
                0,
                10000
              ],
              "shinyRatio": null,
              "xPlaneRestTranslation": [
                0,
                0,
                0
              ]
            }
          }
        },
        {
          "attributes": {
            "POSITION": 0,
            "NORMAL": 1,
            "TEXCOORD_0": 2
          },
          "indices": 10,
          "material": 0,
          "mode": 4,
          "extras": {
            "xPlaneDrawState": {
              "alphaMode": "BLEND",
              "alphaCutoff": null,
              "doubleSided": false,
              "shade": "smooth",
              "depthTest": true,
              "drawEnabled": true,
              "draped": true,
              "layerGroupDraped": null,
              "layerGroup": null,
              "lodDraped": null,
              "emissionRgb": [
                0,
                0,
                0
              ],
              "lodRange": [
                0,
                10000
              ],
              "shinyRatio": null,
              "xPlaneRestTranslation": [
                0,
                0,
                0
              ]
            }
          }
        },
        {
          "attributes": {
            "POSITION": 0,
            "NORMAL": 1,
            "TEXCOORD_0": 2
          },
          "indices": 11,
          "material": 0,
          "mode": 4,
          "extras": {
            "xPlaneDrawState": {
              "alphaMode": "BLEND",
              "alphaCutoff": null,
              "doubleSided": false,
              "shade": "smooth",
              "depthTest": true,
              "drawEnabled": true,
              "draped": true,
              "layerGroupDraped": null,
              "layerGroup": null,
              "lodDraped": null,
              "emissionRgb": [
                0,
                0,
                0
              ],
              "lodRange": [
                0,
                10000
              ],
              "shinyRatio": null,
              "xPlaneRestTranslation": [
                0,
                0,
                0
              ]
            }
          }
        },
        {
          "attributes": {
            "POSITION": 0,
            "NORMAL": 1,
            "TEXCOORD_0": 2
          },
          "indices": 12,
          "material": 0,
          "mode": 4,
          "extras": {
            "xPlaneDrawState": {
              "alphaMode": "BLEND",
              "alphaCutoff": null,
              "doubleSided": false,
              "shade": "smooth",
              "depthTest": true,
              "drawEnabled": true,
              "draped": true,
              "layerGroupDraped": null,
              "layerGroup": null,
              "lodDraped": null,
              "emissionRgb": [
                0,
                0,
                0
              ],
              "lodRange": [
                0,
                10000
              ],
              "shinyRatio": null,
              "xPlaneRestTranslation": [
                0,
                0,
                0
              ]
            }
          }
        }
      ]
    }
  ],
  "nodes": [
    {
      "name": "SDF_code_C_AAL",
      "mesh": 0,
      "extras": {
        "xPlaneParameterizedLights": [],
        "xPlaneVertexLights": [],
        "xPlaneNamedLights": [],
        "xPlaneGlobalNoShadow": true,
        "xPlaneGlobalSpecular": 0.5,
        "xPlaneWeatherTexture": null,
        "xPlaneWeatherTransparent": false
      }
    }
  ],
  "scenes": [
    {
      "nodes": [
        0
      ]
    }
  ],
  "scene": 0,
  "extras": {
    "sourceFormat": "X-Plane OBJ8",
    "sourceFile": "SDF_code_C_AAL.obj",
    "sourceTexture": null,
    "sourceDrapedTexture": "stop_markers.png",
    "sourceLitTexture": null,
    "sourceNormalTexture": null,
    "sourceNormalScale": null,
    "sourceDrapedNormalTexture": "../paint/textures/paint_clean_NML.png",
    "sourceDrapedNormalScale": 1,
    "sourceWeatherTexture": null,
    "sourceWeatherTransparent": false,
    "globalNoShadow": true,
    "globalSpecular": 0.5,
    "globalAlphaCutoff": null,
    "normalMetalness": false,
    "pointCounts": [
      102,
      0,
      0,
      102
    ],
    "vertexCount": 102,
    "indexCount": 102,
    "triangleCount": 34,
    "drawRanges": [
      {
        "start": 0,
        "count": 6,
        "state": {
          "alphaMode": "BLEND",
          "alphaCutoff": null,
          "doubleSided": false,
          "shade": "smooth",
          "depthTest": true,
          "drawEnabled": true,
          "draped": true,
          "layerGroupDraped": null,
          "layerGroup": null,
          "lodDraped": null,
          "emissionRgb": [
            0,
            0,
            0
          ],
          "lodRange": [
            0,
            10000
          ],
          "shinyRatio": null,
          "xPlaneRestTranslation": [
            0,
            0,
            0
          ]
        }
      },
      {
        "start": 6,
        "count": 6,
        "state": {
          "alphaMode": "BLEND",
          "alphaCutoff": null,
          "doubleSided": false,
          "shade": "smooth",
          "depthTest": true,
          "drawEnabled": true,
          "draped": true,
          "layerGroupDraped": null,
          "layerGroup": null,
          "lodDraped": null,
          "emissionRgb": [
            0,
            0,
            0
          ],
          "lodRange": [
            0,
            10000
          ],
          "shinyRatio": null,
          "xPlaneRestTranslation": [
            0,
            0,
            0
          ]
        }
      },
      {
        "start": 12,
        "count": 6,
        "state": {
          "alphaMode": "BLEND",
          "alphaCutoff": null,
          "doubleSided": false,
          "shade": "smooth",
          "depthTest": true,
          "drawEnabled": true,
          "draped": true,
          "layerGroupDraped": null,
          "layerGroup": null,
          "lodDraped": null,
          "emissionRgb": [
            0,
            0,
            0
          ],
          "lodRange": [
            0,
            10000
          ],
          "shinyRatio": null,
          "xPlaneRestTranslation": [
            0,
            0,
            0
          ]
        }
      },
      {
        "start": 18,
        "count": 6,
        "state": {
          "alphaMode": "BLEND",
          "alphaCutoff": null,
          "doubleSided": false,
          "shade": "smooth",
          "depthTest": true,
          "drawEnabled": true,
          "draped": true,
          "layerGroupDraped": null,
          "layerGroup": null,
          "lodDraped": null,
          "emissionRgb": [
            0,
            0,
            0
          ],
          "lodRange": [
            0,
            10000
          ],
          "shinyRatio": null,
          "xPlaneRestTranslation": [
            0,
            0,
            0
          ]
        }
      },
      {
        "start": 24,
        "count": 6,
        "state": {
          "alphaMode": "BLEND",
          "alphaCutoff": null,
          "doubleSided": false,
          "shade": "smooth",
          "depthTest": true,
          "drawEnabled": true,
          "draped": true,
          "layerGroupDraped": null,
          "layerGroup": null,
          "lodDraped": null,
          "emissionRgb": [
            0,
            0,
            0
          ],
          "lodRange": [
            0,
            10000
          ],
          "shinyRatio": null,
          "xPlaneRestTranslation": [
            0,
            0,
            0
          ]
        }
      },
      {
        "start": 30,
        "count": 6,
        "state": {
          "alphaMode": "BLEND",
          "alphaCutoff": null,
          "doubleSided": false,
          "shade": "smooth",
          "depthTest": true,
          "drawEnabled": true,
          "draped": true,
          "layerGroupDraped": null,
          "layerGroup": null,
          "lodDraped": null,
          "emissionRgb": [
            0,
            0,
            0
          ],
          "lodRange": [
            0,
            10000
          ],
          "shinyRatio": null,
          "xPlaneRestTranslation": [
            0,
            0,
            0
          ]
        }
      },
      {
        "start": 36,
        "count": 6,
        "state": {
          "alphaMode": "BLEND",
          "alphaCutoff": null,
          "doubleSided": false,
          "shade": "smooth",
          "depthTest": true,
          "drawEnabled": true,
          "draped": true,
          "layerGroupDraped": null,
          "layerGroup": null,
          "lodDraped": null,
          "emissionRgb": [
            0,
            0,
            0
          ],
          "lodRange": [
            0,
            10000
          ],
          "shinyRatio": null,
          "xPlaneRestTranslation": [
            0,
            0,
            0
          ]
        }
      },
      {
        "start": 42,
        "count": 6,
        "state": {
          "alphaMode": "BLEND",
          "alphaCutoff": null,
          "doubleSided": false,
          "shade": "smooth",
          "depthTest": true,
          "drawEnabled": true,
          "draped": true,
          "layerGroupDraped": null,
          "layerGroup": null,
          "lodDraped": null,
          "emissionRgb": [
            0,
            0,
            0
          ],
          "lodRange": [
            0,
            10000
          ],
          "shinyRatio": null,
          "xPlaneRestTranslation": [
            0,
            0,
            0
          ]
        }
      },
      {
        "start": 48,
        "count": 6,
        "state": {
          "alphaMode": "BLEND",
          "alphaCutoff": null,
          "doubleSided": false,
          "shade": "smooth",
          "depthTest": true,
          "drawEnabled": true,
          "draped": true,
          "layerGroupDraped": null,
          "layerGroup": null,
          "lodDraped": null,
          "emissionRgb": [
            0,
            0,
            0
          ],
          "lodRange": [
            0,
            10000
          ],
          "shinyRatio": null,
          "xPlaneRestTranslation": [
            0,
            0,
            0
          ]
        }
      },
      {
        "start": 54,
        "count": 48,
        "state": {
          "alphaMode": "BLEND",
          "alphaCutoff": null,
          "doubleSided": false,
          "shade": "smooth",
          "depthTest": true,
          "drawEnabled": true,
          "draped": true,
          "layerGroupDraped": null,
          "layerGroup": null,
          "lodDraped": null,
          "emissionRgb": [
            0,
            0,
            0
          ],
          "lodRange": [
            0,
            10000
          ],
          "shinyRatio": null,
          "xPlaneRestTranslation": [
            0,
            0,
            0
          ]
        }
      }
    ],
    "parameterizedLightCount": 0,
    "parameterizedLights": [],
    "vertexLightCount": 0,
    "vertexLights": [],
    "namedLightCount": 0,
    "namedLights": [],
    "sourceBounds": {
      "min": [
        -3.1905007,
        0.0032931371,
        0.0027846098
      ],
      "max": [
        0.58240867,
        0.0032931371,
        2.4484055
      ]
    },
    "geometryPolicy": "preserve-source-positions-normals-uvs-topology-no-remesh-no-decimation;convert-X-Plane-clockwise-TRIS-to-glTF-counterclockwise-winding",
    "drawStatePolicy": "preserve-supported-per-TRIS-blend-and-cull-state;honor-IF-NOT-SCENERY_SHADOWS;preserve-WEATHER_TRANSPARENT-as-source-metadata-with-no-browser-weather-overlay;bake-exact-zero-distance-GroundTraffic-rest-translation-including-keyframed-translations;reject-unsupported-render-state",
    "sceneryShadowsEnabled": true,
    "textureCoordinatePolicy": "preserve-source-uv-buffer-and-flip-v-at-material-level-for-gltf-upper-left-image-origin"
  }
}
