{
  "asset": {
    "version": "2.0",
    "generator": "RampReady exact X-Plane OBJ8 converter v2"
  },
  "extensionsUsed": [
    "KHR_texture_transform"
  ],
  "buffers": [
    {
      "uri": "Southwest_Airlines_S.bin",
      "byteLength": 234792
    }
  ],
  "bufferViews": [
    {
      "buffer": 0,
      "byteOffset": 0,
      "byteLength": 72144,
      "target": 34962
    },
    {
      "buffer": 0,
      "byteOffset": 72144,
      "byteLength": 72144,
      "target": 34962
    },
    {
      "buffer": 0,
      "byteOffset": 144288,
      "byteLength": 48096,
      "target": 34962
    },
    {
      "buffer": 0,
      "byteOffset": 192384,
      "byteLength": 42408,
      "target": 34963
    }
  ],
  "accessors": [
    {
      "bufferView": 0,
      "componentType": 5126,
      "count": 6012,
      "type": "VEC3",
      "min": [
        -18.48433113,
        -0.0022492,
        -4.71357346
      ],
      "max": [
        18.48433113,
        12.08986568,
        36.10155106
      ]
    },
    {
      "bufferView": 1,
      "componentType": 5126,
      "count": 6012,
      "type": "VEC3",
      "min": [
        -1,
        -1,
        -1
      ],
      "max": [
        1,
        1,
        1
      ]
    },
    {
      "bufferView": 2,
      "componentType": 5126,
      "count": 6012,
      "type": "VEC2",
      "min": [
        0.00130117,
        0.00151476
      ],
      "max": [
        0.99845386,
        0.9964447
      ]
    },
    {
      "bufferView": 3,
      "byteOffset": 0,
      "componentType": 5123,
      "count": 21192,
      "type": "SCALAR",
      "min": [
        0
      ],
      "max": [
        6005
      ]
    }
  ],
  "images": [
    {
      "uri": "Southwest_Airlines.png"
    },
    {
      "uri": "Southwest_Airlines_LIT.png"
    },
    {
      "uri": "Normal.png"
    }
  ],
  "samplers": [
    {
      "magFilter": 9729,
      "minFilter": 9987,
      "wrapS": 10497,
      "wrapT": 10497
    }
  ],
  "textures": [
    {
      "sampler": 0,
      "source": 0
    },
    {
      "sampler": 0,
      "source": 1
    },
    {
      "sampler": 0,
      "source": 2
    }
  ],
  "materials": [
    {
      "name": "Southwest_Airlines_S source material 0",
      "pbrMetallicRoughness": {
        "baseColorTexture": {
          "index": 0,
          "extensions": {
            "KHR_texture_transform": {
              "offset": [
                0,
                1
              ],
              "scale": [
                1,
                -1
              ]
            }
          }
        },
        "metallicFactor": 0,
        "roughnessFactor": 1
      },
      "doubleSided": false,
      "alphaMode": "BLEND",
      "emissiveFactor": [
        1,
        1,
        1
      ],
      "extras": {
        "xPlaneDraped": false,
        "xPlaneLayerGroupDraped": null,
        "xPlaneLayerGroup": null,
        "xPlaneLodDraped": null,
        "xPlaneEmissionRgb": [
          0,
          0,
          0
        ],
        "xPlaneLodRange": null,
        "xPlaneShinyRatio": null,
        "xPlaneGlobalSpecular": 1,
        "xPlaneGlobalAlphaCutoff": null,
        "xPlaneNormalMetalness": false
      },
      "emissiveTexture": {
        "index": 1,
        "extensions": {
          "KHR_texture_transform": {
            "offset": [
              0,
              1
            ],
            "scale": [
              1,
              -1
            ]
          }
        }
      },
      "normalTexture": {
        "index": 2,
        "extensions": {
          "KHR_texture_transform": {
            "offset": [
              0,
              1
            ],
            "scale": [
              1,
              -1
            ]
          }
        },
        "scale": 1
      }
    }
  ],
  "meshes": [
    {
      "name": "Southwest_Airlines_S",
      "primitives": [
        {
          "attributes": {
            "POSITION": 0,
            "NORMAL": 1,
            "TEXCOORD_0": 2
          },
          "indices": 3,
          "material": 0,
          "mode": 4,
          "extras": {
            "xPlaneDrawState": {
              "alphaMode": "BLEND",
              "alphaCutoff": null,
              "doubleSided": false,
              "shade": "smooth",
              "depthTest": true,
              "drawEnabled": true,
              "draped": false,
              "layerGroupDraped": null,
              "layerGroup": null,
              "lodDraped": null,
              "emissionRgb": [
                0,
                0,
                0
              ],
              "lodRange": null,
              "shinyRatio": null,
              "xPlaneRestTranslation": [
                0,
                0,
                0
              ]
            }
          }
        }
      ]
    }
  ],
  "nodes": [
    {
      "name": "Southwest_Airlines_S",
      "mesh": 0,
      "extras": {
        "xPlaneParameterizedLights": [],
        "xPlaneVertexLights": [],
        "xPlaneNamedLights": [
          {
            "position": [
              null,
              17.01769257,
              3.84707189
            ],
            "name": "19.11888123",
            "params": [],
            "raw": "LIGHT_NAMED\tairplane_nav_right_static_h 17.01769257 3.84707189 19.11888123"
          },
          {
            "position": [
              null,
              -0.00000291,
              4.34734154
            ],
            "name": "33.95492554",
            "params": [],
            "raw": "LIGHT_NAMED\tairplane_nav_tail_static_h -0.00000291 4.34734154 33.95492554"
          },
          {
            "position": [
              null,
              -17.01769257,
              3.84707189
            ],
            "name": "19.11887932",
            "params": [],
            "raw": "LIGHT_NAMED\tairplane_nav_left_static_h -17.01769257 3.84707189 19.11887932"
          }
        ],
        "xPlaneGlobalNoShadow": false,
        "xPlaneGlobalLodRange": null,
        "xPlaneTilted": false,
        "xPlaneGlobalSpecular": 1,
        "xPlaneWeatherTexture": null,
        "xPlaneWeatherTransparent": false
      }
    }
  ],
  "scenes": [
    {
      "nodes": [
        0
      ]
    }
  ],
  "scene": 0,
  "extras": {
    "sourceFormat": "X-Plane OBJ8",
    "sourceFile": "Southwest_Airlines_S.obj",
    "sourceTexture": "Southwest_Airlines.png",
    "sourceDrapedTexture": null,
    "sourceLitTexture": "Southwest_Airlines_LIT.png",
    "sourceNormalTexture": "Normal.png",
    "sourceNormalScale": 1,
    "sourceDrapedNormalTexture": null,
    "sourceDrapedNormalScale": null,
    "sourceWeatherTexture": null,
    "sourceWeatherTransparent": false,
    "globalNoShadow": false,
    "globalLodRange": null,
    "sourceTilted": false,
    "globalSpecular": 1,
    "globalAlphaCutoff": null,
    "normalMetalness": false,
    "pointCounts": [
      6012,
      0,
      0,
      21204
    ],
    "vertexCount": 6012,
    "indexCount": 21204,
    "triangleCount": 7064,
    "drawRanges": [
      {
        "start": 0,
        "count": 21192,
        "state": {
          "alphaMode": "BLEND",
          "alphaCutoff": null,
          "doubleSided": false,
          "shade": "smooth",
          "depthTest": true,
          "drawEnabled": true,
          "draped": false,
          "layerGroupDraped": null,
          "layerGroup": null,
          "lodDraped": null,
          "emissionRgb": [
            0,
            0,
            0
          ],
          "lodRange": null,
          "shinyRatio": null,
          "xPlaneRestTranslation": [
            0,
            0,
            0
          ]
        }
      }
    ],
    "parameterizedLightCount": 0,
    "parameterizedLights": [],
    "vertexLightCount": 0,
    "vertexLights": [],
    "namedLightCount": 3,
    "namedLights": [
      {
        "position": [
          null,
          17.01769257,
          3.84707189
        ],
        "name": "19.11888123",
        "params": [],
        "raw": "LIGHT_NAMED\tairplane_nav_right_static_h 17.01769257 3.84707189 19.11888123"
      },
      {
        "position": [
          null,
          -0.00000291,
          4.34734154
        ],
        "name": "33.95492554",
        "params": [],
        "raw": "LIGHT_NAMED\tairplane_nav_tail_static_h -0.00000291 4.34734154 33.95492554"
      },
      {
        "position": [
          null,
          -17.01769257,
          3.84707189
        ],
        "name": "19.11887932",
        "params": [],
        "raw": "LIGHT_NAMED\tairplane_nav_left_static_h -17.01769257 3.84707189 19.11887932"
      }
    ],
    "sourceBounds": {
      "min": [
        -18.48433113,
        -0.0022492,
        -4.71357346
      ],
      "max": [
        18.48433113,
        12.08986568,
        36.10155106
      ]
    },
    "geometryPolicy": "preserve-source-positions-normals-uvs-topology-no-remesh-no-decimation;convert-X-Plane-clockwise-TRIS-to-glTF-counterclockwise-winding",
    "drawStatePolicy": "preserve-supported-per-TRIS-blend-and-cull-state;honor-IF-NOT-SCENERY_SHADOWS-and-IF-NOT-GLOBAL_SHADOWS;preserve-GLOBAL_LOD-and-TILTED-source-semantics;preserve-WEATHER_TRANSPARENT-as-source-metadata-with-no-browser-weather-overlay;bake-exact-zero-distance-GroundTraffic-rest-translation-including-keyframed-translations;reject-unsupported-render-state",
    "sceneryShadowsEnabled": true,
    "globalShadowsEnabled": true,
    "textureCoordinatePolicy": "preserve-source-uv-buffer-and-flip-v-at-material-level-for-gltf-upper-left-image-origin"
  }
}
