{
  "asset": {
    "version": "2.0",
    "generator": "RampReady exact X-Plane OBJ8 converter v2"
  },
  "extensionsUsed": [
    "KHR_texture_transform"
  ],
  "buffers": [
    {
      "uri": "Pickup_White.bin",
      "byteLength": 64088
    }
  ],
  "bufferViews": [
    {
      "buffer": 0,
      "byteOffset": 0,
      "byteLength": 8940,
      "target": 34962
    },
    {
      "buffer": 0,
      "byteOffset": 8940,
      "byteLength": 8940,
      "target": 34962
    },
    {
      "buffer": 0,
      "byteOffset": 17880,
      "byteLength": 5960,
      "target": 34962
    },
    {
      "buffer": 0,
      "byteOffset": 23840,
      "byteLength": 4488,
      "target": 34963
    },
    {
      "buffer": 0,
      "byteOffset": 28328,
      "byteLength": 8940,
      "target": 34962
    },
    {
      "buffer": 0,
      "byteOffset": 37268,
      "byteLength": 8940,
      "target": 34962
    },
    {
      "buffer": 0,
      "byteOffset": 46208,
      "byteLength": 8940,
      "target": 34962
    },
    {
      "buffer": 0,
      "byteOffset": 55148,
      "byteLength": 8940,
      "target": 34962
    }
  ],
  "accessors": [
    {
      "bufferView": 0,
      "componentType": 5126,
      "count": 745,
      "type": "VEC3",
      "min": [
        -2.48272681,
        -0.4512606,
        -5.45213747
      ],
      "max": [
        2.48272681,
        1.92618775,
        5.45213747
      ]
    },
    {
      "bufferView": 1,
      "componentType": 5126,
      "count": 745,
      "type": "VEC3",
      "min": [
        -1,
        -1,
        -1
      ],
      "max": [
        1,
        1,
        1
      ]
    },
    {
      "bufferView": 2,
      "componentType": 5126,
      "count": 745,
      "type": "VEC2",
      "min": [
        0.00009998,
        0.00009998
      ],
      "max": [
        0.99989998,
        0.99989998
      ]
    },
    {
      "bufferView": 3,
      "byteOffset": 0,
      "componentType": 5123,
      "count": 204,
      "type": "SCALAR",
      "min": [
        0
      ],
      "max": [
        73
      ]
    },
    {
      "bufferView": 4,
      "componentType": 5126,
      "count": 745,
      "type": "VEC3",
      "min": [
        -3.3141531300000002,
        -0.018255030000000005,
        -3.4940201
      ],
      "max": [
        1.65130049,
        2.35919332,
        7.41025484
      ]
    },
    {
      "bufferView": 3,
      "byteOffset": 408,
      "componentType": 5123,
      "count": 204,
      "type": "SCALAR",
      "min": [
        74
      ],
      "max": [
        147
      ]
    },
    {
      "bufferView": 5,
      "componentType": 5126,
      "count": 745,
      "type": "VEC3",
      "min": [
        -3.3141530699999997,
        -0.018255240000000006,
        -8.06212449
      ],
      "max": [
        1.65130055,
        2.35919311,
        2.84215045
      ]
    },
    {
      "bufferView": 3,
      "byteOffset": 816,
      "componentType": 5123,
      "count": 204,
      "type": "SCALAR",
      "min": [
        148
      ],
      "max": [
        221
      ]
    },
    {
      "bufferView": 6,
      "componentType": 5126,
      "count": 745,
      "type": "VEC3",
      "min": [
        -1.65130055,
        -0.018255240000000006,
        -8.06212449
      ],
      "max": [
        3.3141530699999997,
        2.35919311,
        2.84215045
      ]
    },
    {
      "bufferView": 3,
      "byteOffset": 1224,
      "componentType": 5123,
      "count": 204,
      "type": "SCALAR",
      "min": [
        222
      ],
      "max": [
        295
      ]
    },
    {
      "bufferView": 7,
      "componentType": 5126,
      "count": 745,
      "type": "VEC3",
      "min": [
        -1.65130049,
        -0.018255030000000005,
        -3.4940201
      ],
      "max": [
        3.3141531300000002,
        2.35919332,
        7.41025484
      ]
    },
    {
      "bufferView": 3,
      "byteOffset": 1632,
      "componentType": 5123,
      "count": 1422,
      "type": "SCALAR",
      "min": [
        296
      ],
      "max": [
        740
      ]
    },
    {
      "bufferView": 3,
      "byteOffset": 4476,
      "componentType": 5123,
      "count": 6,
      "type": "SCALAR",
      "min": [
        741
      ],
      "max": [
        744
      ]
    }
  ],
  "images": [
    {
      "uri": "Pickup_White.png"
    },
    {
      "uri": "Vehicle_Shadow.png"
    }
  ],
  "samplers": [
    {
      "magFilter": 9729,
      "minFilter": 9987,
      "wrapS": 10497,
      "wrapT": 10497
    }
  ],
  "textures": [
    {
      "sampler": 0,
      "source": 0
    },
    {
      "sampler": 0,
      "source": 1
    }
  ],
  "materials": [
    {
      "name": "Pickup_White source material 0",
      "pbrMetallicRoughness": {
        "baseColorTexture": {
          "index": 0,
          "extensions": {
            "KHR_texture_transform": {
              "offset": [
                0,
                1
              ],
              "scale": [
                1,
                -1
              ]
            }
          }
        },
        "metallicFactor": 0,
        "roughnessFactor": 1
      },
      "doubleSided": false,
      "alphaMode": "BLEND",
      "emissiveFactor": [
        0,
        0,
        0
      ],
      "extras": {
        "xPlaneDraped": false,
        "xPlaneLayerGroupDraped": null,
        "xPlaneLayerGroup": null,
        "xPlaneLodDraped": null,
        "xPlaneEmissionRgb": [
          0,
          0,
          0
        ],
        "xPlaneLodRange": [
          0,
          3000
        ],
        "xPlaneShinyRatio": null,
        "xPlaneGlobalSpecular": null,
        "xPlaneGlobalAlphaCutoff": null,
        "xPlaneNormalMetalness": false
      }
    },
    {
      "name": "Pickup_White source material 1",
      "pbrMetallicRoughness": {
        "baseColorTexture": {
          "index": 1,
          "extensions": {
            "KHR_texture_transform": {
              "offset": [
                0,
                1
              ],
              "scale": [
                1,
                -1
              ]
            }
          }
        },
        "metallicFactor": 0,
        "roughnessFactor": 1
      },
      "doubleSided": false,
      "alphaMode": "BLEND",
      "emissiveFactor": [
        0,
        0,
        0
      ],
      "extras": {
        "xPlaneDraped": true,
        "xPlaneLayerGroupDraped": null,
        "xPlaneLayerGroup": null,
        "xPlaneLodDraped": null,
        "xPlaneEmissionRgb": [
          0,
          0,
          0
        ],
        "xPlaneLodRange": [
          0,
          3000
        ],
        "xPlaneShinyRatio": null,
        "xPlaneGlobalSpecular": null,
        "xPlaneGlobalAlphaCutoff": null,
        "xPlaneNormalMetalness": false
      }
    }
  ],
  "meshes": [
    {
      "name": "Pickup_White",
      "primitives": [
        {
          "attributes": {
            "POSITION": 4,
            "NORMAL": 1,
            "TEXCOORD_0": 2
          },
          "indices": 3,
          "material": 0,
          "mode": 4,
          "extras": {
            "xPlaneDrawState": {
              "alphaMode": "BLEND",
              "alphaCutoff": null,
              "doubleSided": false,
              "shade": "smooth",
              "depthTest": true,
              "drawEnabled": true,
              "draped": false,
              "layerGroupDraped": null,
              "layerGroup": null,
              "lodDraped": null,
              "emissionRgb": [
                0,
                0,
                0
              ],
              "lodRange": [
                0,
                3000
              ],
              "shinyRatio": null,
              "xPlaneRestTranslation": [
                -0.83142632,
                0.43300557,
                1.95811737
              ]
            }
          }
        },
        {
          "attributes": {
            "POSITION": 6,
            "NORMAL": 1,
            "TEXCOORD_0": 2
          },
          "indices": 5,
          "material": 0,
          "mode": 4,
          "extras": {
            "xPlaneDrawState": {
              "alphaMode": "BLEND",
              "alphaCutoff": null,
              "doubleSided": false,
              "shade": "smooth",
              "depthTest": true,
              "drawEnabled": true,
              "draped": false,
              "layerGroupDraped": null,
              "layerGroup": null,
              "lodDraped": null,
              "emissionRgb": [
                0,
                0,
                0
              ],
              "lodRange": [
                0,
                3000
              ],
              "shinyRatio": null,
              "xPlaneRestTranslation": [
                -0.83142626,
                0.43300536,
                -2.60998702
              ]
            }
          }
        },
        {
          "attributes": {
            "POSITION": 8,
            "NORMAL": 1,
            "TEXCOORD_0": 2
          },
          "indices": 7,
          "material": 0,
          "mode": 4,
          "extras": {
            "xPlaneDrawState": {
              "alphaMode": "BLEND",
              "alphaCutoff": null,
              "doubleSided": false,
              "shade": "smooth",
              "depthTest": true,
              "drawEnabled": true,
              "draped": false,
              "layerGroupDraped": null,
              "layerGroup": null,
              "lodDraped": null,
              "emissionRgb": [
                0,
                0,
                0
              ],
              "lodRange": [
                0,
                3000
              ],
              "shinyRatio": null,
              "xPlaneRestTranslation": [
                0.83142626,
                0.43300536,
                -2.60998702
              ]
            }
          }
        },
        {
          "attributes": {
            "POSITION": 10,
            "NORMAL": 1,
            "TEXCOORD_0": 2
          },
          "indices": 9,
          "material": 0,
          "mode": 4,
          "extras": {
            "xPlaneDrawState": {
              "alphaMode": "BLEND",
              "alphaCutoff": null,
              "doubleSided": false,
              "shade": "smooth",
              "depthTest": true,
              "drawEnabled": true,
              "draped": false,
              "layerGroupDraped": null,
              "layerGroup": null,
              "lodDraped": null,
              "emissionRgb": [
                0,
                0,
                0
              ],
              "lodRange": [
                0,
                3000
              ],
              "shinyRatio": null,
              "xPlaneRestTranslation": [
                0.83142632,
                0.43300557,
                1.95811737
              ]
            }
          }
        },
        {
          "attributes": {
            "POSITION": 0,
            "NORMAL": 1,
            "TEXCOORD_0": 2
          },
          "indices": 11,
          "material": 0,
          "mode": 4,
          "extras": {
            "xPlaneDrawState": {
              "alphaMode": "BLEND",
              "alphaCutoff": null,
              "doubleSided": false,
              "shade": "smooth",
              "depthTest": true,
              "drawEnabled": true,
              "draped": false,
              "layerGroupDraped": null,
              "layerGroup": null,
              "lodDraped": null,
              "emissionRgb": [
                0,
                0,
                0
              ],
              "lodRange": [
                0,
                3000
              ],
              "shinyRatio": null,
              "xPlaneRestTranslation": [
                0,
                0,
                0
              ]
            }
          }
        },
        {
          "attributes": {
            "POSITION": 0,
            "NORMAL": 1,
            "TEXCOORD_0": 2
          },
          "indices": 12,
          "material": 1,
          "mode": 4,
          "extras": {
            "xPlaneDrawState": {
              "alphaMode": "BLEND",
              "alphaCutoff": null,
              "doubleSided": false,
              "shade": "smooth",
              "depthTest": true,
              "drawEnabled": true,
              "draped": true,
              "layerGroupDraped": null,
              "layerGroup": null,
              "lodDraped": null,
              "emissionRgb": [
                0,
                0,
                0
              ],
              "lodRange": [
                0,
                3000
              ],
              "shinyRatio": null,
              "xPlaneRestTranslation": [
                0,
                0,
                0
              ]
            }
          }
        }
      ]
    }
  ],
  "nodes": [
    {
      "name": "Pickup_White",
      "mesh": 0,
      "extras": {
        "xPlaneParameterizedLights": [],
        "xPlaneVertexLights": [],
        "xPlaneNamedLights": [
          {
            "position": [
              null,
              -0.93000001,
              1.02093017
            ],
            "name": "3.20168757",
            "params": [],
            "raw": "LIGHT_NAMED\ttaillight2\t-0.93000001\t1.02093017\t3.20168757"
          },
          {
            "position": [
              null,
              0.93000001,
              1.02093017
            ],
            "name": "3.20168757",
            "params": [],
            "raw": "LIGHT_NAMED\ttaillight2\t0.93000001\t1.02093017\t3.20168757"
          },
          {
            "position": [
              null,
              -0.69999999,
              0.90791363
            ],
            "name": "-3.33095169",
            "params": [],
            "raw": "LIGHT_NAMED\theadlight2\t-0.69999999\t0.90791363\t-3.33095169"
          },
          {
            "position": [
              null,
              0.69999999,
              0.90791363
            ],
            "name": "-3.33095169",
            "params": [],
            "raw": "LIGHT_NAMED\theadlight2\t0.69999999\t0.90791363\t-3.33095169"
          }
        ],
        "xPlaneGlobalNoShadow": false,
        "xPlaneGlobalSpecular": null,
        "xPlaneWeatherTexture": null,
        "xPlaneWeatherTransparent": false
      }
    }
  ],
  "scenes": [
    {
      "nodes": [
        0
      ]
    }
  ],
  "scene": 0,
  "extras": {
    "sourceFormat": "X-Plane OBJ8",
    "sourceFile": "Pickup_White.obj",
    "sourceTexture": "../Pickup_White.png",
    "sourceDrapedTexture": "../../../../Shared/Vehicle_Shadow.png",
    "sourceLitTexture": null,
    "sourceNormalTexture": null,
    "sourceNormalScale": null,
    "sourceDrapedNormalTexture": null,
    "sourceDrapedNormalScale": null,
    "sourceWeatherTexture": null,
    "sourceWeatherTransparent": false,
    "globalNoShadow": false,
    "globalSpecular": null,
    "globalAlphaCutoff": null,
    "normalMetalness": false,
    "pointCounts": [
      745,
      0,
      1,
      2244
    ],
    "vertexCount": 745,
    "indexCount": 2244,
    "triangleCount": 748,
    "drawRanges": [
      {
        "start": 0,
        "count": 204,
        "state": {
          "alphaMode": "BLEND",
          "alphaCutoff": null,
          "doubleSided": false,
          "shade": "smooth",
          "depthTest": true,
          "drawEnabled": true,
          "draped": false,
          "layerGroupDraped": null,
          "layerGroup": null,
          "lodDraped": null,
          "emissionRgb": [
            0,
            0,
            0
          ],
          "lodRange": [
            0,
            3000
          ],
          "shinyRatio": null,
          "xPlaneRestTranslation": [
            -0.83142632,
            0.43300557,
            1.95811737
          ]
        }
      },
      {
        "start": 204,
        "count": 204,
        "state": {
          "alphaMode": "BLEND",
          "alphaCutoff": null,
          "doubleSided": false,
          "shade": "smooth",
          "depthTest": true,
          "drawEnabled": true,
          "draped": false,
          "layerGroupDraped": null,
          "layerGroup": null,
          "lodDraped": null,
          "emissionRgb": [
            0,
            0,
            0
          ],
          "lodRange": [
            0,
            3000
          ],
          "shinyRatio": null,
          "xPlaneRestTranslation": [
            -0.83142626,
            0.43300536,
            -2.60998702
          ]
        }
      },
      {
        "start": 408,
        "count": 204,
        "state": {
          "alphaMode": "BLEND",
          "alphaCutoff": null,
          "doubleSided": false,
          "shade": "smooth",
          "depthTest": true,
          "drawEnabled": true,
          "draped": false,
          "layerGroupDraped": null,
          "layerGroup": null,
          "lodDraped": null,
          "emissionRgb": [
            0,
            0,
            0
          ],
          "lodRange": [
            0,
            3000
          ],
          "shinyRatio": null,
          "xPlaneRestTranslation": [
            0.83142626,
            0.43300536,
            -2.60998702
          ]
        }
      },
      {
        "start": 612,
        "count": 204,
        "state": {
          "alphaMode": "BLEND",
          "alphaCutoff": null,
          "doubleSided": false,
          "shade": "smooth",
          "depthTest": true,
          "drawEnabled": true,
          "draped": false,
          "layerGroupDraped": null,
          "layerGroup": null,
          "lodDraped": null,
          "emissionRgb": [
            0,
            0,
            0
          ],
          "lodRange": [
            0,
            3000
          ],
          "shinyRatio": null,
          "xPlaneRestTranslation": [
            0.83142632,
            0.43300557,
            1.95811737
          ]
        }
      },
      {
        "start": 816,
        "count": 1422,
        "state": {
          "alphaMode": "BLEND",
          "alphaCutoff": null,
          "doubleSided": false,
          "shade": "smooth",
          "depthTest": true,
          "drawEnabled": true,
          "draped": false,
          "layerGroupDraped": null,
          "layerGroup": null,
          "lodDraped": null,
          "emissionRgb": [
            0,
            0,
            0
          ],
          "lodRange": [
            0,
            3000
          ],
          "shinyRatio": null,
          "xPlaneRestTranslation": [
            0,
            0,
            0
          ]
        }
      },
      {
        "start": 2238,
        "count": 6,
        "state": {
          "alphaMode": "BLEND",
          "alphaCutoff": null,
          "doubleSided": false,
          "shade": "smooth",
          "depthTest": true,
          "drawEnabled": true,
          "draped": true,
          "layerGroupDraped": null,
          "layerGroup": null,
          "lodDraped": null,
          "emissionRgb": [
            0,
            0,
            0
          ],
          "lodRange": [
            0,
            3000
          ],
          "shinyRatio": null,
          "xPlaneRestTranslation": [
            0,
            0,
            0
          ]
        }
      }
    ],
    "parameterizedLightCount": 0,
    "parameterizedLights": [],
    "vertexLightCount": 0,
    "vertexLights": [],
    "namedLightCount": 4,
    "namedLights": [
      {
        "position": [
          null,
          -0.93000001,
          1.02093017
        ],
        "name": "3.20168757",
        "params": [],
        "raw": "LIGHT_NAMED\ttaillight2\t-0.93000001\t1.02093017\t3.20168757"
      },
      {
        "position": [
          null,
          0.93000001,
          1.02093017
        ],
        "name": "3.20168757",
        "params": [],
        "raw": "LIGHT_NAMED\ttaillight2\t0.93000001\t1.02093017\t3.20168757"
      },
      {
        "position": [
          null,
          -0.69999999,
          0.90791363
        ],
        "name": "-3.33095169",
        "params": [],
        "raw": "LIGHT_NAMED\theadlight2\t-0.69999999\t0.90791363\t-3.33095169"
      },
      {
        "position": [
          null,
          0.69999999,
          0.90791363
        ],
        "name": "-3.33095169",
        "params": [],
        "raw": "LIGHT_NAMED\theadlight2\t0.69999999\t0.90791363\t-3.33095169"
      }
    ],
    "sourceBounds": {
      "min": [
        -2.48272681,
        -0.4512606,
        -5.45213747
      ],
      "max": [
        2.48272681,
        1.92618775,
        5.45213747
      ]
    },
    "geometryPolicy": "preserve-source-positions-normals-uvs-topology-no-remesh-no-decimation;convert-X-Plane-clockwise-TRIS-to-glTF-counterclockwise-winding",
    "drawStatePolicy": "preserve-supported-per-TRIS-blend-and-cull-state;honor-IF-NOT-SCENERY_SHADOWS;preserve-WEATHER_TRANSPARENT-as-source-metadata-with-no-browser-weather-overlay;bake-exact-zero-distance-GroundTraffic-rest-translation-including-keyframed-translations;reject-unsupported-render-state",
    "sceneryShadowsEnabled": true,
    "textureCoordinatePolicy": "preserve-source-uv-buffer-and-flip-v-at-material-level-for-gltf-upper-left-image-origin"
  }
}
