{
  "asset": {
    "version": "2.0",
    "generator": "RampReady exact X-Plane OBJ8 converter v2"
  },
  "extensionsUsed": [
    "KHR_texture_transform"
  ],
  "buffers": [
    {
      "uri": "Generic.bin",
      "byteLength": 364756
    }
  ],
  "bufferViews": [
    {
      "buffer": 0,
      "byteOffset": 0,
      "byteLength": 71916,
      "target": 34962
    },
    {
      "buffer": 0,
      "byteOffset": 71916,
      "byteLength": 71916,
      "target": 34962
    },
    {
      "buffer": 0,
      "byteOffset": 143832,
      "byteLength": 47944,
      "target": 34962
    },
    {
      "buffer": 0,
      "byteOffset": 191776,
      "byteLength": 29148,
      "target": 34963
    },
    {
      "buffer": 0,
      "byteOffset": 220924,
      "byteLength": 71916,
      "target": 34962
    },
    {
      "buffer": 0,
      "byteOffset": 292840,
      "byteLength": 71916,
      "target": 34962
    }
  ],
  "accessors": [
    {
      "bufferView": 0,
      "componentType": 5126,
      "count": 5993,
      "type": "VEC3",
      "min": [
        -1.8221281,
        -0.41720757,
        -4.5954657
      ],
      "max": [
        1.8221281,
        2.5806251,
        4.5954657
      ]
    },
    {
      "bufferView": 1,
      "componentType": 5126,
      "count": 5993,
      "type": "VEC3",
      "min": [
        -1,
        -1,
        -1
      ],
      "max": [
        1,
        1,
        1
      ]
    },
    {
      "bufferView": 2,
      "componentType": 5126,
      "count": 5993,
      "type": "VEC2",
      "min": [
        0.0011647865,
        0.0011650696
      ],
      "max": [
        0.9981913,
        0.99882597
      ]
    },
    {
      "bufferView": 3,
      "byteOffset": 0,
      "componentType": 5123,
      "count": 1140,
      "type": "SCALAR",
      "min": [
        0
      ],
      "max": [
        399
      ]
    },
    {
      "bufferView": 4,
      "componentType": 5126,
      "count": 5993,
      "type": "VEC3",
      "min": [
        -1.8221281,
        -0.010977570000000048,
        -3.0353657
      ],
      "max": [
        1.8221281,
        2.9868550999999997,
        6.1555657
      ]
    },
    {
      "bufferView": 3,
      "byteOffset": 2280,
      "componentType": 5123,
      "count": 1140,
      "type": "SCALAR",
      "min": [
        400
      ],
      "max": [
        799
      ]
    },
    {
      "bufferView": 5,
      "componentType": 5126,
      "count": 5993,
      "type": "VEC3",
      "min": [
        -1.8221281,
        -0.010977570000000048,
        -6.1555657
      ],
      "max": [
        1.8221281,
        2.9868550999999997,
        3.0353657
      ]
    },
    {
      "bufferView": 3,
      "byteOffset": 4560,
      "componentType": 5123,
      "count": 12288,
      "type": "SCALAR",
      "min": [
        800
      ],
      "max": [
        5988
      ]
    },
    {
      "bufferView": 3,
      "byteOffset": 29136,
      "componentType": 5123,
      "count": 6,
      "type": "SCALAR",
      "min": [
        5989
      ],
      "max": [
        5992
      ]
    }
  ],
  "images": [
    {
      "uri": "Generic.png"
    },
    {
      "uri": "Vehicle_Shadow.png"
    },
    {
      "uri": "Generic_NML.png"
    }
  ],
  "samplers": [
    {
      "magFilter": 9729,
      "minFilter": 9987,
      "wrapS": 10497,
      "wrapT": 10497
    }
  ],
  "textures": [
    {
      "sampler": 0,
      "source": 0
    },
    {
      "sampler": 0,
      "source": 1
    },
    {
      "sampler": 0,
      "source": 2
    }
  ],
  "materials": [
    {
      "name": "Generic source material 0",
      "pbrMetallicRoughness": {
        "baseColorTexture": {
          "index": 0,
          "extensions": {
            "KHR_texture_transform": {
              "offset": [
                0,
                1
              ],
              "scale": [
                1,
                -1
              ]
            }
          }
        },
        "metallicFactor": 0,
        "roughnessFactor": 1
      },
      "doubleSided": false,
      "alphaMode": "BLEND",
      "emissiveFactor": [
        0,
        0,
        0
      ],
      "extras": {
        "xPlaneDraped": false,
        "xPlaneLayerGroupDraped": null,
        "xPlaneLayerGroup": null,
        "xPlaneLodDraped": 2500,
        "xPlaneEmissionRgb": [
          0,
          0,
          0
        ],
        "xPlaneLodRange": [
          0,
          2500
        ],
        "xPlaneShinyRatio": null,
        "xPlaneGlobalSpecular": 1,
        "xPlaneGlobalAlphaCutoff": null,
        "xPlaneNormalMetalness": false
      },
      "normalTexture": {
        "index": 2,
        "extensions": {
          "KHR_texture_transform": {
            "offset": [
              0,
              1
            ],
            "scale": [
              1,
              -1
            ]
          }
        },
        "scale": 1
      }
    },
    {
      "name": "Generic source material 1",
      "pbrMetallicRoughness": {
        "baseColorTexture": {
          "index": 1,
          "extensions": {
            "KHR_texture_transform": {
              "offset": [
                0,
                1
              ],
              "scale": [
                1,
                -1
              ]
            }
          }
        },
        "metallicFactor": 0,
        "roughnessFactor": 1
      },
      "doubleSided": false,
      "alphaMode": "BLEND",
      "emissiveFactor": [
        0,
        0,
        0
      ],
      "extras": {
        "xPlaneDraped": true,
        "xPlaneLayerGroupDraped": null,
        "xPlaneLayerGroup": null,
        "xPlaneLodDraped": 2500,
        "xPlaneEmissionRgb": [
          0,
          0,
          0
        ],
        "xPlaneLodRange": [
          0,
          2500
        ],
        "xPlaneShinyRatio": null,
        "xPlaneGlobalSpecular": 1,
        "xPlaneGlobalAlphaCutoff": null,
        "xPlaneNormalMetalness": false
      },
      "normalTexture": {
        "index": 2,
        "extensions": {
          "KHR_texture_transform": {
            "offset": [
              0,
              1
            ],
            "scale": [
              1,
              -1
            ]
          }
        },
        "scale": 1
      }
    }
  ],
  "meshes": [
    {
      "name": "Generic",
      "primitives": [
        {
          "attributes": {
            "POSITION": 4,
            "NORMAL": 1,
            "TEXCOORD_0": 2
          },
          "indices": 3,
          "material": 0,
          "mode": 4,
          "extras": {
            "xPlaneDrawState": {
              "alphaMode": "BLEND",
              "alphaCutoff": null,
              "doubleSided": false,
              "shade": "smooth",
              "depthTest": true,
              "drawEnabled": true,
              "draped": false,
              "layerGroupDraped": null,
              "layerGroup": null,
              "lodDraped": 2500,
              "emissionRgb": [
                0,
                0,
                0
              ],
              "lodRange": [
                0,
                2500
              ],
              "shinyRatio": null,
              "xPlaneRestTranslation": [
                0,
                0.40623,
                1.5601
              ]
            }
          }
        },
        {
          "attributes": {
            "POSITION": 6,
            "NORMAL": 1,
            "TEXCOORD_0": 2
          },
          "indices": 5,
          "material": 0,
          "mode": 4,
          "extras": {
            "xPlaneDrawState": {
              "alphaMode": "BLEND",
              "alphaCutoff": null,
              "doubleSided": false,
              "shade": "smooth",
              "depthTest": true,
              "drawEnabled": true,
              "draped": false,
              "layerGroupDraped": null,
              "layerGroup": null,
              "lodDraped": 2500,
              "emissionRgb": [
                0,
                0,
                0
              ],
              "lodRange": [
                0,
                2500
              ],
              "shinyRatio": null,
              "xPlaneRestTranslation": [
                0,
                0.40623,
                -1.5601
              ]
            }
          }
        },
        {
          "attributes": {
            "POSITION": 0,
            "NORMAL": 1,
            "TEXCOORD_0": 2
          },
          "indices": 7,
          "material": 0,
          "mode": 4,
          "extras": {
            "xPlaneDrawState": {
              "alphaMode": "BLEND",
              "alphaCutoff": null,
              "doubleSided": false,
              "shade": "smooth",
              "depthTest": true,
              "drawEnabled": true,
              "draped": false,
              "layerGroupDraped": null,
              "layerGroup": null,
              "lodDraped": 2500,
              "emissionRgb": [
                0,
                0,
                0
              ],
              "lodRange": [
                0,
                2500
              ],
              "shinyRatio": null,
              "xPlaneRestTranslation": [
                0,
                0,
                0
              ]
            }
          }
        },
        {
          "attributes": {
            "POSITION": 0,
            "NORMAL": 1,
            "TEXCOORD_0": 2
          },
          "indices": 8,
          "material": 1,
          "mode": 4,
          "extras": {
            "xPlaneDrawState": {
              "alphaMode": "BLEND",
              "alphaCutoff": null,
              "doubleSided": false,
              "shade": "smooth",
              "depthTest": true,
              "drawEnabled": true,
              "draped": true,
              "layerGroupDraped": null,
              "layerGroup": null,
              "lodDraped": 2500,
              "emissionRgb": [
                0,
                0,
                0
              ],
              "lodRange": [
                0,
                2500
              ],
              "shinyRatio": null,
              "xPlaneRestTranslation": [
                0,
                0,
                0
              ]
            }
          }
        }
      ]
    }
  ],
  "nodes": [
    {
      "name": "Generic",
      "mesh": 0,
      "extras": {
        "xPlaneParameterizedLights": [],
        "xPlaneVertexLights": [],
        "xPlaneNamedLights": [
          {
            "position": [
              null,
              -0.88268816,
              0.83875024
            ],
            "name": "-2.6917648",
            "params": [],
            "raw": "LIGHT_NAMED\theadlight -0.88268816 0.83875024 -2.6917648"
          },
          {
            "position": [
              null,
              0.88331378,
              0.83875024
            ],
            "name": "-2.5030999",
            "params": [],
            "raw": "LIGHT_NAMED\theadlight 0.88331378 0.83875024 -2.5030999"
          },
          {
            "position": [
              null,
              -0.9570865,
              0.87510234
            ],
            "name": "2.6164188",
            "params": [],
            "raw": "LIGHT_NAMED\ttaillight -0.9570865 0.87510234 2.6164188"
          },
          {
            "position": [
              null,
              0.9570865,
              0.87510234
            ],
            "name": "2.6164188",
            "params": [],
            "raw": "LIGHT_NAMED\ttaillight 0.9570865 0.87510234 2.6164188"
          }
        ],
        "xPlaneGlobalNoShadow": false,
        "xPlaneGlobalLodRange": null,
        "xPlaneTilted": false,
        "xPlaneGlobalSpecular": 1,
        "xPlaneWeatherTexture": null,
        "xPlaneWeatherTransparent": false
      }
    }
  ],
  "scenes": [
    {
      "nodes": [
        0
      ]
    }
  ],
  "scene": 0,
  "extras": {
    "sourceFormat": "X-Plane OBJ8",
    "sourceFile": "Generic.obj",
    "sourceTexture": "../Generic.png",
    "sourceDrapedTexture": "../../../../Shared/Vehicle_Shadow.png",
    "sourceLitTexture": null,
    "sourceNormalTexture": "../Generic_NML.png",
    "sourceNormalScale": 1,
    "sourceDrapedNormalTexture": null,
    "sourceDrapedNormalScale": null,
    "sourceWeatherTexture": null,
    "sourceWeatherTransparent": false,
    "globalNoShadow": false,
    "globalLodRange": null,
    "sourceTilted": false,
    "globalSpecular": 1,
    "globalAlphaCutoff": null,
    "normalMetalness": false,
    "pointCounts": [
      5993,
      0,
      0,
      14574
    ],
    "vertexCount": 5993,
    "indexCount": 14574,
    "triangleCount": 4858,
    "drawRanges": [
      {
        "start": 0,
        "count": 1140,
        "state": {
          "alphaMode": "BLEND",
          "alphaCutoff": null,
          "doubleSided": false,
          "shade": "smooth",
          "depthTest": true,
          "drawEnabled": true,
          "draped": false,
          "layerGroupDraped": null,
          "layerGroup": null,
          "lodDraped": 2500,
          "emissionRgb": [
            0,
            0,
            0
          ],
          "lodRange": [
            0,
            2500
          ],
          "shinyRatio": null,
          "xPlaneRestTranslation": [
            0,
            0.40623,
            1.5601
          ]
        }
      },
      {
        "start": 1140,
        "count": 1140,
        "state": {
          "alphaMode": "BLEND",
          "alphaCutoff": null,
          "doubleSided": false,
          "shade": "smooth",
          "depthTest": true,
          "drawEnabled": true,
          "draped": false,
          "layerGroupDraped": null,
          "layerGroup": null,
          "lodDraped": 2500,
          "emissionRgb": [
            0,
            0,
            0
          ],
          "lodRange": [
            0,
            2500
          ],
          "shinyRatio": null,
          "xPlaneRestTranslation": [
            0,
            0.40623,
            -1.5601
          ]
        }
      },
      {
        "start": 2280,
        "count": 12288,
        "state": {
          "alphaMode": "BLEND",
          "alphaCutoff": null,
          "doubleSided": false,
          "shade": "smooth",
          "depthTest": true,
          "drawEnabled": true,
          "draped": false,
          "layerGroupDraped": null,
          "layerGroup": null,
          "lodDraped": 2500,
          "emissionRgb": [
            0,
            0,
            0
          ],
          "lodRange": [
            0,
            2500
          ],
          "shinyRatio": null,
          "xPlaneRestTranslation": [
            0,
            0,
            0
          ]
        }
      },
      {
        "start": 14568,
        "count": 6,
        "state": {
          "alphaMode": "BLEND",
          "alphaCutoff": null,
          "doubleSided": false,
          "shade": "smooth",
          "depthTest": true,
          "drawEnabled": true,
          "draped": true,
          "layerGroupDraped": null,
          "layerGroup": null,
          "lodDraped": 2500,
          "emissionRgb": [
            0,
            0,
            0
          ],
          "lodRange": [
            0,
            2500
          ],
          "shinyRatio": null,
          "xPlaneRestTranslation": [
            0,
            0,
            0
          ]
        }
      }
    ],
    "parameterizedLightCount": 0,
    "parameterizedLights": [],
    "vertexLightCount": 0,
    "vertexLights": [],
    "namedLightCount": 4,
    "namedLights": [
      {
        "position": [
          null,
          -0.88268816,
          0.83875024
        ],
        "name": "-2.6917648",
        "params": [],
        "raw": "LIGHT_NAMED\theadlight -0.88268816 0.83875024 -2.6917648"
      },
      {
        "position": [
          null,
          0.88331378,
          0.83875024
        ],
        "name": "-2.5030999",
        "params": [],
        "raw": "LIGHT_NAMED\theadlight 0.88331378 0.83875024 -2.5030999"
      },
      {
        "position": [
          null,
          -0.9570865,
          0.87510234
        ],
        "name": "2.6164188",
        "params": [],
        "raw": "LIGHT_NAMED\ttaillight -0.9570865 0.87510234 2.6164188"
      },
      {
        "position": [
          null,
          0.9570865,
          0.87510234
        ],
        "name": "2.6164188",
        "params": [],
        "raw": "LIGHT_NAMED\ttaillight 0.9570865 0.87510234 2.6164188"
      }
    ],
    "sourceBounds": {
      "min": [
        -1.8221281,
        -0.41720757,
        -4.5954657
      ],
      "max": [
        1.8221281,
        2.5806251,
        4.5954657
      ]
    },
    "geometryPolicy": "preserve-source-positions-normals-uvs-topology-no-remesh-no-decimation;convert-X-Plane-clockwise-TRIS-to-glTF-counterclockwise-winding",
    "drawStatePolicy": "preserve-supported-per-TRIS-blend-and-cull-state;honor-IF-NOT-SCENERY_SHADOWS-and-IF-NOT-GLOBAL_SHADOWS;preserve-GLOBAL_LOD-and-TILTED-source-semantics;preserve-WEATHER_TRANSPARENT-as-source-metadata-with-no-browser-weather-overlay;bake-exact-zero-distance-GroundTraffic-rest-translation-including-keyframed-translations;reject-unsupported-render-state",
    "sceneryShadowsEnabled": true,
    "globalShadowsEnabled": true,
    "textureCoordinatePolicy": "preserve-source-uv-buffer-and-flip-v-at-material-level-for-gltf-upper-left-image-origin"
  }
}
