{
  "asset": {
    "version": "2.0",
    "generator": "RampReady exact X-Plane OBJ8 converter v2"
  },
  "extensionsUsed": [
    "KHR_texture_transform"
  ],
  "buffers": [
    {
      "uri": "Delta.bin",
      "byteLength": 201188
    }
  ],
  "bufferViews": [
    {
      "buffer": 0,
      "byteOffset": 0,
      "byteLength": 61752,
      "target": 34962
    },
    {
      "buffer": 0,
      "byteOffset": 61752,
      "byteLength": 61752,
      "target": 34962
    },
    {
      "buffer": 0,
      "byteOffset": 123504,
      "byteLength": 41168,
      "target": 34962
    },
    {
      "buffer": 0,
      "byteOffset": 164672,
      "byteLength": 36516,
      "target": 34963
    }
  ],
  "accessors": [
    {
      "bufferView": 0,
      "componentType": 5126,
      "count": 5146,
      "type": "VEC3",
      "min": [
        -21.24565125,
        0.00007001,
        -7.6851368
      ],
      "max": [
        21.24565125,
        13.76596642,
        49.70311737
      ]
    },
    {
      "bufferView": 1,
      "componentType": 5126,
      "count": 5146,
      "type": "VEC3",
      "min": [
        -1,
        -1,
        -1
      ],
      "max": [
        1,
        1,
        1
      ]
    },
    {
      "bufferView": 2,
      "componentType": 5126,
      "count": 5146,
      "type": "VEC2",
      "min": [
        0.00109819,
        0.01392636
      ],
      "max": [
        0.99936688,
        0.99787879
      ]
    },
    {
      "bufferView": 3,
      "byteOffset": 0,
      "componentType": 5123,
      "count": 18246,
      "type": "SCALAR",
      "min": [
        0
      ],
      "max": [
        5139
      ]
    }
  ],
  "images": [
    {
      "uri": "Delta.png"
    },
    {
      "uri": "Delta_LIT.png"
    },
    {
      "uri": "Normal.png"
    }
  ],
  "samplers": [
    {
      "magFilter": 9729,
      "minFilter": 9987,
      "wrapS": 10497,
      "wrapT": 10497
    }
  ],
  "textures": [
    {
      "sampler": 0,
      "source": 0
    },
    {
      "sampler": 0,
      "source": 1
    },
    {
      "sampler": 0,
      "source": 2
    }
  ],
  "materials": [
    {
      "name": "Delta source material 0",
      "pbrMetallicRoughness": {
        "baseColorTexture": {
          "index": 0,
          "extensions": {
            "KHR_texture_transform": {
              "offset": [
                0,
                1
              ],
              "scale": [
                1,
                -1
              ]
            }
          }
        },
        "metallicFactor": 0,
        "roughnessFactor": 1
      },
      "doubleSided": false,
      "alphaMode": "BLEND",
      "emissiveFactor": [
        1,
        1,
        1
      ],
      "extras": {
        "xPlaneDraped": false,
        "xPlaneLayerGroupDraped": null,
        "xPlaneLayerGroup": null,
        "xPlaneLodDraped": null,
        "xPlaneEmissionRgb": [
          0,
          0,
          0
        ],
        "xPlaneLodRange": null,
        "xPlaneShinyRatio": null,
        "xPlaneGlobalSpecular": 1,
        "xPlaneGlobalAlphaCutoff": null,
        "xPlaneNormalMetalness": false
      },
      "emissiveTexture": {
        "index": 1,
        "extensions": {
          "KHR_texture_transform": {
            "offset": [
              0,
              1
            ],
            "scale": [
              1,
              -1
            ]
          }
        }
      },
      "normalTexture": {
        "index": 2,
        "extensions": {
          "KHR_texture_transform": {
            "offset": [
              0,
              1
            ],
            "scale": [
              1,
              -1
            ]
          }
        },
        "scale": 1
      }
    }
  ],
  "meshes": [
    {
      "name": "Delta",
      "primitives": [
        {
          "attributes": {
            "POSITION": 0,
            "NORMAL": 1,
            "TEXCOORD_0": 2
          },
          "indices": 3,
          "material": 0,
          "mode": 4,
          "extras": {
            "xPlaneDrawState": {
              "alphaMode": "BLEND",
              "alphaCutoff": null,
              "doubleSided": false,
              "shade": "smooth",
              "depthTest": true,
              "drawEnabled": true,
              "draped": false,
              "layerGroupDraped": null,
              "layerGroup": null,
              "lodDraped": null,
              "emissionRgb": [
                0,
                0,
                0
              ],
              "lodRange": null,
              "shinyRatio": null,
              "xPlaneRestTranslation": [
                0,
                0,
                0
              ]
            }
          }
        }
      ]
    }
  ],
  "nodes": [
    {
      "name": "Delta",
      "mesh": 0,
      "extras": {
        "xPlaneParameterizedLights": [],
        "xPlaneVertexLights": [],
        "xPlaneNamedLights": [
          {
            "position": [
              null,
              0,
              5.03096962
            ],
            "name": "48.33348465",
            "params": [],
            "raw": "LIGHT_NAMED\tairplane_nav_tail_static_h 0 5.03096962 48.33348465"
          },
          {
            "position": [
              null,
              -18.91781998,
              4.86726379
            ],
            "name": "25.34971809",
            "params": [],
            "raw": "LIGHT_NAMED\tairplane_nav_left_static_h -18.91781998 4.86726379 25.34971809"
          },
          {
            "position": [
              null,
              18.91781616,
              4.86726379
            ],
            "name": "25.34971809",
            "params": [],
            "raw": "LIGHT_NAMED\tairplane_nav_right_static_h 18.91781616 4.86726379 25.34971809"
          }
        ],
        "xPlaneGlobalNoShadow": false,
        "xPlaneGlobalLodRange": null,
        "xPlaneTilted": false,
        "xPlaneGlobalSpecular": 1,
        "xPlaneWeatherTexture": null,
        "xPlaneWeatherTransparent": false
      }
    }
  ],
  "scenes": [
    {
      "nodes": [
        0
      ]
    }
  ],
  "scene": 0,
  "extras": {
    "sourceFormat": "X-Plane OBJ8",
    "sourceFile": "Delta.obj",
    "sourceTexture": "Delta.png",
    "sourceDrapedTexture": null,
    "sourceLitTexture": "Delta_LIT.png",
    "sourceNormalTexture": "Normal.png",
    "sourceNormalScale": 1,
    "sourceDrapedNormalTexture": null,
    "sourceDrapedNormalScale": null,
    "sourceWeatherTexture": null,
    "sourceWeatherTransparent": false,
    "globalNoShadow": false,
    "globalLodRange": null,
    "sourceTilted": false,
    "globalSpecular": 1,
    "globalAlphaCutoff": null,
    "normalMetalness": false,
    "pointCounts": [
      5146,
      0,
      0,
      18258
    ],
    "vertexCount": 5146,
    "indexCount": 18258,
    "triangleCount": 6082,
    "drawRanges": [
      {
        "start": 0,
        "count": 18246,
        "state": {
          "alphaMode": "BLEND",
          "alphaCutoff": null,
          "doubleSided": false,
          "shade": "smooth",
          "depthTest": true,
          "drawEnabled": true,
          "draped": false,
          "layerGroupDraped": null,
          "layerGroup": null,
          "lodDraped": null,
          "emissionRgb": [
            0,
            0,
            0
          ],
          "lodRange": null,
          "shinyRatio": null,
          "xPlaneRestTranslation": [
            0,
            0,
            0
          ]
        }
      }
    ],
    "parameterizedLightCount": 0,
    "parameterizedLights": [],
    "vertexLightCount": 0,
    "vertexLights": [],
    "namedLightCount": 3,
    "namedLights": [
      {
        "position": [
          null,
          0,
          5.03096962
        ],
        "name": "48.33348465",
        "params": [],
        "raw": "LIGHT_NAMED\tairplane_nav_tail_static_h 0 5.03096962 48.33348465"
      },
      {
        "position": [
          null,
          -18.91781998,
          4.86726379
        ],
        "name": "25.34971809",
        "params": [],
        "raw": "LIGHT_NAMED\tairplane_nav_left_static_h -18.91781998 4.86726379 25.34971809"
      },
      {
        "position": [
          null,
          18.91781616,
          4.86726379
        ],
        "name": "25.34971809",
        "params": [],
        "raw": "LIGHT_NAMED\tairplane_nav_right_static_h 18.91781616 4.86726379 25.34971809"
      }
    ],
    "sourceBounds": {
      "min": [
        -21.24565125,
        0.00007001,
        -7.6851368
      ],
      "max": [
        21.24565125,
        13.76596642,
        49.70311737
      ]
    },
    "geometryPolicy": "preserve-source-positions-normals-uvs-topology-no-remesh-no-decimation;convert-X-Plane-clockwise-TRIS-to-glTF-counterclockwise-winding",
    "drawStatePolicy": "preserve-supported-per-TRIS-blend-and-cull-state;honor-IF-NOT-SCENERY_SHADOWS-and-IF-NOT-GLOBAL_SHADOWS;preserve-GLOBAL_LOD-and-TILTED-source-semantics;preserve-WEATHER_TRANSPARENT-as-source-metadata-with-no-browser-weather-overlay;bake-exact-zero-distance-GroundTraffic-rest-translation-including-keyframed-translations;reject-unsupported-render-state",
    "sceneryShadowsEnabled": true,
    "globalShadowsEnabled": true,
    "textureCoordinatePolicy": "preserve-source-uv-buffer-and-flip-v-at-material-level-for-gltf-upper-left-image-origin"
  }
}
