{
  "asset": {
    "version": "2.0",
    "generator": "RampReady exact X-Plane OBJ8 converter v2"
  },
  "extensionsUsed": [
    "KHR_texture_transform"
  ],
  "buffers": [
    {
      "uri": "ASIG.bin",
      "byteLength": 151408
    }
  ],
  "bufferViews": [
    {
      "buffer": 0,
      "byteOffset": 0,
      "byteLength": 47724,
      "target": 34962
    },
    {
      "buffer": 0,
      "byteOffset": 47724,
      "byteLength": 47724,
      "target": 34962
    },
    {
      "buffer": 0,
      "byteOffset": 95448,
      "byteLength": 31816,
      "target": 34962
    },
    {
      "buffer": 0,
      "byteOffset": 127264,
      "byteLength": 24144,
      "target": 34963
    }
  ],
  "accessors": [
    {
      "bufferView": 0,
      "componentType": 5126,
      "count": 3977,
      "type": "VEC3",
      "min": [
        -2.68749809,
        -0.01052165,
        -8.0340929
      ],
      "max": [
        2.68749809,
        2.97135329,
        8.0340929
      ]
    },
    {
      "bufferView": 1,
      "componentType": 5126,
      "count": 3977,
      "type": "VEC3",
      "min": [
        -1,
        -1,
        -1
      ],
      "max": [
        1,
        1,
        1
      ]
    },
    {
      "bufferView": 2,
      "componentType": 5126,
      "count": 3977,
      "type": "VEC2",
      "min": [
        0.00009998,
        0.00009998
      ],
      "max": [
        0.99989998,
        0.99989998
      ]
    },
    {
      "bufferView": 3,
      "byteOffset": 0,
      "componentType": 5123,
      "count": 12066,
      "type": "SCALAR",
      "min": [
        0
      ],
      "max": [
        3972
      ]
    },
    {
      "bufferView": 3,
      "byteOffset": 24132,
      "componentType": 5123,
      "count": 6,
      "type": "SCALAR",
      "min": [
        3973
      ],
      "max": [
        3976
      ]
    }
  ],
  "images": [
    {
      "uri": "ASIG.png"
    },
    {
      "uri": "Vehicle_Shadow.png"
    }
  ],
  "samplers": [
    {
      "magFilter": 9729,
      "minFilter": 9987,
      "wrapS": 10497,
      "wrapT": 10497
    }
  ],
  "textures": [
    {
      "sampler": 0,
      "source": 0
    },
    {
      "sampler": 0,
      "source": 1
    }
  ],
  "materials": [
    {
      "name": "ASIG source material 0",
      "pbrMetallicRoughness": {
        "baseColorTexture": {
          "index": 0,
          "extensions": {
            "KHR_texture_transform": {
              "offset": [
                0,
                1
              ],
              "scale": [
                1,
                -1
              ]
            }
          }
        },
        "metallicFactor": 0,
        "roughnessFactor": 1
      },
      "doubleSided": false,
      "alphaMode": "BLEND",
      "emissiveFactor": [
        0,
        0,
        0
      ],
      "extras": {
        "xPlaneDraped": false,
        "xPlaneLayerGroupDraped": null,
        "xPlaneLayerGroup": null,
        "xPlaneLodDraped": null,
        "xPlaneEmissionRgb": [
          0,
          0,
          0
        ],
        "xPlaneLodRange": [
          0,
          3000
        ],
        "xPlaneShinyRatio": null,
        "xPlaneGlobalSpecular": null,
        "xPlaneGlobalAlphaCutoff": null,
        "xPlaneNormalMetalness": false
      }
    },
    {
      "name": "ASIG source material 1",
      "pbrMetallicRoughness": {
        "baseColorTexture": {
          "index": 1,
          "extensions": {
            "KHR_texture_transform": {
              "offset": [
                0,
                1
              ],
              "scale": [
                1,
                -1
              ]
            }
          }
        },
        "metallicFactor": 0,
        "roughnessFactor": 1
      },
      "doubleSided": false,
      "alphaMode": "BLEND",
      "emissiveFactor": [
        0,
        0,
        0
      ],
      "extras": {
        "xPlaneDraped": true,
        "xPlaneLayerGroupDraped": null,
        "xPlaneLayerGroup": null,
        "xPlaneLodDraped": null,
        "xPlaneEmissionRgb": [
          0,
          0,
          0
        ],
        "xPlaneLodRange": [
          0,
          3000
        ],
        "xPlaneShinyRatio": null,
        "xPlaneGlobalSpecular": null,
        "xPlaneGlobalAlphaCutoff": null,
        "xPlaneNormalMetalness": false
      }
    }
  ],
  "meshes": [
    {
      "name": "ASIG",
      "primitives": [
        {
          "attributes": {
            "POSITION": 0,
            "NORMAL": 1,
            "TEXCOORD_0": 2
          },
          "indices": 3,
          "material": 0,
          "mode": 4,
          "extras": {
            "xPlaneDrawState": {
              "alphaMode": "BLEND",
              "alphaCutoff": null,
              "doubleSided": false,
              "shade": "smooth",
              "depthTest": true,
              "drawEnabled": true,
              "draped": false,
              "layerGroupDraped": null,
              "layerGroup": null,
              "lodDraped": null,
              "emissionRgb": [
                0,
                0,
                0
              ],
              "lodRange": [
                0,
                3000
              ],
              "shinyRatio": null,
              "xPlaneRestTranslation": [
                0,
                0,
                0
              ]
            }
          }
        },
        {
          "attributes": {
            "POSITION": 0,
            "NORMAL": 1,
            "TEXCOORD_0": 2
          },
          "indices": 4,
          "material": 1,
          "mode": 4,
          "extras": {
            "xPlaneDrawState": {
              "alphaMode": "BLEND",
              "alphaCutoff": null,
              "doubleSided": false,
              "shade": "smooth",
              "depthTest": true,
              "drawEnabled": true,
              "draped": true,
              "layerGroupDraped": null,
              "layerGroup": null,
              "lodDraped": null,
              "emissionRgb": [
                0,
                0,
                0
              ],
              "lodRange": [
                0,
                3000
              ],
              "shinyRatio": null,
              "xPlaneRestTranslation": [
                0,
                0,
                0
              ]
            }
          }
        }
      ]
    }
  ],
  "nodes": [
    {
      "name": "ASIG",
      "mesh": 0,
      "extras": {
        "xPlaneParameterizedLights": [],
        "xPlaneVertexLights": [],
        "xPlaneNamedLights": [],
        "xPlaneGlobalNoShadow": false,
        "xPlaneGlobalSpecular": null,
        "xPlaneWeatherTexture": null,
        "xPlaneWeatherTransparent": false
      }
    }
  ],
  "scenes": [
    {
      "nodes": [
        0
      ]
    }
  ],
  "scene": 0,
  "extras": {
    "sourceFormat": "X-Plane OBJ8",
    "sourceFile": "ASIG.obj",
    "sourceTexture": "ASIG.png",
    "sourceDrapedTexture": "../../../../Shared/Vehicle_Shadow.png",
    "sourceLitTexture": null,
    "sourceNormalTexture": null,
    "sourceNormalScale": null,
    "sourceDrapedNormalTexture": null,
    "sourceDrapedNormalScale": null,
    "sourceWeatherTexture": null,
    "sourceWeatherTransparent": false,
    "globalNoShadow": false,
    "globalSpecular": null,
    "globalAlphaCutoff": null,
    "normalMetalness": false,
    "pointCounts": [
      3977,
      0,
      1,
      12072
    ],
    "vertexCount": 3977,
    "indexCount": 12072,
    "triangleCount": 4024,
    "drawRanges": [
      {
        "start": 0,
        "count": 12066,
        "state": {
          "alphaMode": "BLEND",
          "alphaCutoff": null,
          "doubleSided": false,
          "shade": "smooth",
          "depthTest": true,
          "drawEnabled": true,
          "draped": false,
          "layerGroupDraped": null,
          "layerGroup": null,
          "lodDraped": null,
          "emissionRgb": [
            0,
            0,
            0
          ],
          "lodRange": [
            0,
            3000
          ],
          "shinyRatio": null,
          "xPlaneRestTranslation": [
            0,
            0,
            0
          ]
        }
      },
      {
        "start": 12066,
        "count": 6,
        "state": {
          "alphaMode": "BLEND",
          "alphaCutoff": null,
          "doubleSided": false,
          "shade": "smooth",
          "depthTest": true,
          "drawEnabled": true,
          "draped": true,
          "layerGroupDraped": null,
          "layerGroup": null,
          "lodDraped": null,
          "emissionRgb": [
            0,
            0,
            0
          ],
          "lodRange": [
            0,
            3000
          ],
          "shinyRatio": null,
          "xPlaneRestTranslation": [
            0,
            0,
            0
          ]
        }
      }
    ],
    "parameterizedLightCount": 0,
    "parameterizedLights": [],
    "vertexLightCount": 0,
    "vertexLights": [],
    "namedLightCount": 0,
    "namedLights": [],
    "sourceBounds": {
      "min": [
        -2.68749809,
        -0.01052165,
        -8.0340929
      ],
      "max": [
        2.68749809,
        2.97135329,
        8.0340929
      ]
    },
    "geometryPolicy": "preserve-source-positions-normals-uvs-topology-no-remesh-no-decimation;convert-X-Plane-clockwise-TRIS-to-glTF-counterclockwise-winding",
    "drawStatePolicy": "preserve-supported-per-TRIS-blend-and-cull-state;honor-IF-NOT-SCENERY_SHADOWS;preserve-WEATHER_TRANSPARENT-as-source-metadata-with-no-browser-weather-overlay;bake-exact-zero-distance-GroundTraffic-rest-translation-including-keyframed-translations;reject-unsupported-render-state",
    "sceneryShadowsEnabled": true,
    "textureCoordinatePolicy": "preserve-source-uv-buffer-and-flip-v-at-material-level-for-gltf-upper-left-image-origin"
  }
}
