{
  "asset": {
    "version": "2.0",
    "generator": "RampReady exact X-Plane OBJ8 converter v2"
  },
  "extensionsUsed": [
    "KHR_texture_transform"
  ],
  "buffers": [
    {
      "uri": "American_Airlines.bin",
      "byteLength": 323960
    }
  ],
  "bufferViews": [
    {
      "buffer": 0,
      "byteOffset": 0,
      "byteLength": 100632,
      "target": 34962
    },
    {
      "buffer": 0,
      "byteOffset": 100632,
      "byteLength": 100632,
      "target": 34962
    },
    {
      "buffer": 0,
      "byteOffset": 201264,
      "byteLength": 67088,
      "target": 34962
    },
    {
      "buffer": 0,
      "byteOffset": 268352,
      "byteLength": 55608,
      "target": 34963
    }
  ],
  "accessors": [
    {
      "bufferView": 0,
      "componentType": 5126,
      "count": 8386,
      "type": "VEC3",
      "min": [
        -39.70184326,
        -0.031771,
        -13.96255875
      ],
      "max": [
        39.70184326,
        18.32852173,
        65.44113159
      ]
    },
    {
      "bufferView": 1,
      "componentType": 5126,
      "count": 8386,
      "type": "VEC3",
      "min": [
        -1,
        -1,
        -1
      ],
      "max": [
        1,
        1,
        1
      ]
    },
    {
      "bufferView": 2,
      "componentType": 5126,
      "count": 8386,
      "type": "VEC2",
      "min": [
        0.00061794,
        0.00139915
      ],
      "max": [
        0.99945152,
        0.99858421
      ]
    },
    {
      "bufferView": 3,
      "byteOffset": 0,
      "componentType": 5123,
      "count": 27792,
      "type": "SCALAR",
      "min": [
        0
      ],
      "max": [
        8379
      ]
    }
  ],
  "images": [
    {
      "uri": "American_Airlines.png"
    },
    {
      "uri": "American_Airlines_LIT.png"
    },
    {
      "uri": "Normal.png"
    }
  ],
  "samplers": [
    {
      "magFilter": 9729,
      "minFilter": 9987,
      "wrapS": 10497,
      "wrapT": 10497
    }
  ],
  "textures": [
    {
      "sampler": 0,
      "source": 0
    },
    {
      "sampler": 0,
      "source": 1
    },
    {
      "sampler": 0,
      "source": 2
    }
  ],
  "materials": [
    {
      "name": "American_Airlines source material 0",
      "pbrMetallicRoughness": {
        "baseColorTexture": {
          "index": 0,
          "extensions": {
            "KHR_texture_transform": {
              "offset": [
                0,
                1
              ],
              "scale": [
                1,
                -1
              ]
            }
          }
        },
        "metallicFactor": 0,
        "roughnessFactor": 1
      },
      "doubleSided": false,
      "alphaMode": "BLEND",
      "emissiveFactor": [
        1,
        1,
        1
      ],
      "extras": {
        "xPlaneDraped": false,
        "xPlaneLayerGroupDraped": null,
        "xPlaneLayerGroup": null,
        "xPlaneLodDraped": null,
        "xPlaneEmissionRgb": [
          0,
          0,
          0
        ],
        "xPlaneLodRange": null,
        "xPlaneShinyRatio": null,
        "xPlaneGlobalSpecular": 1,
        "xPlaneGlobalAlphaCutoff": null,
        "xPlaneNormalMetalness": false
      },
      "emissiveTexture": {
        "index": 1,
        "extensions": {
          "KHR_texture_transform": {
            "offset": [
              0,
              1
            ],
            "scale": [
              1,
              -1
            ]
          }
        }
      },
      "normalTexture": {
        "index": 2,
        "extensions": {
          "KHR_texture_transform": {
            "offset": [
              0,
              1
            ],
            "scale": [
              1,
              -1
            ]
          }
        },
        "scale": 1
      }
    }
  ],
  "meshes": [
    {
      "name": "American_Airlines",
      "primitives": [
        {
          "attributes": {
            "POSITION": 0,
            "NORMAL": 1,
            "TEXCOORD_0": 2
          },
          "indices": 3,
          "material": 0,
          "mode": 4,
          "extras": {
            "xPlaneDrawState": {
              "alphaMode": "BLEND",
              "alphaCutoff": null,
              "doubleSided": false,
              "shade": "smooth",
              "depthTest": true,
              "drawEnabled": true,
              "draped": false,
              "layerGroupDraped": null,
              "layerGroup": null,
              "lodDraped": null,
              "emissionRgb": [
                0,
                0,
                0
              ],
              "lodRange": null,
              "shinyRatio": null,
              "xPlaneRestTranslation": [
                0,
                0,
                0
              ]
            }
          }
        }
      ]
    }
  ],
  "nodes": [
    {
      "name": "American_Airlines",
      "mesh": 0,
      "extras": {
        "xPlaneParameterizedLights": [],
        "xPlaneVertexLights": [],
        "xPlaneNamedLights": [
          {
            "position": [
              null,
              0,
              6.96656942
            ],
            "name": "57.07613754",
            "params": [],
            "raw": "LIGHT_NAMED\tairplane_nav_tail_static_h 0 6.96656942 57.07613754"
          },
          {
            "position": [
              null,
              30.1836338,
              7.31377649
            ],
            "name": "35.99459839",
            "params": [],
            "raw": "LIGHT_NAMED\tairplane_nav_tail_static_h 30.1836338 7.31377649 35.99459839"
          },
          {
            "position": [
              null,
              30.1836338,
              7.31377649
            ],
            "name": "34.1348114",
            "params": [],
            "raw": "LIGHT_NAMED\tairplane_nav_right_static_h 30.1836338 7.31377649 34.1348114"
          },
          {
            "position": [
              null,
              -30.1836338,
              7.31377649
            ],
            "name": "34.1348114",
            "params": [],
            "raw": "LIGHT_NAMED\tairplane_nav_left_static_h -30.1836338 7.31377649 34.1348114"
          },
          {
            "position": [
              null,
              -30.1836338,
              7.31377649
            ],
            "name": "35.99459839",
            "params": [],
            "raw": "LIGHT_NAMED\tairplane_nav_tail_static_h -30.1836338 7.31377649 35.99459839"
          }
        ],
        "xPlaneGlobalNoShadow": false,
        "xPlaneGlobalLodRange": null,
        "xPlaneTilted": false,
        "xPlaneGlobalSpecular": 1,
        "xPlaneWeatherTexture": null,
        "xPlaneWeatherTransparent": false
      }
    }
  ],
  "scenes": [
    {
      "nodes": [
        0
      ]
    }
  ],
  "scene": 0,
  "extras": {
    "sourceFormat": "X-Plane OBJ8",
    "sourceFile": "American_Airlines.obj",
    "sourceTexture": "American_Airlines.png",
    "sourceDrapedTexture": null,
    "sourceLitTexture": "American_Airlines_LIT.png",
    "sourceNormalTexture": "Normal.png",
    "sourceNormalScale": 1,
    "sourceDrapedNormalTexture": null,
    "sourceDrapedNormalScale": null,
    "sourceWeatherTexture": null,
    "sourceWeatherTransparent": false,
    "globalNoShadow": false,
    "globalLodRange": null,
    "sourceTilted": false,
    "globalSpecular": 1,
    "globalAlphaCutoff": null,
    "normalMetalness": false,
    "pointCounts": [
      8386,
      0,
      0,
      27804
    ],
    "vertexCount": 8386,
    "indexCount": 27804,
    "triangleCount": 9264,
    "drawRanges": [
      {
        "start": 0,
        "count": 27792,
        "state": {
          "alphaMode": "BLEND",
          "alphaCutoff": null,
          "doubleSided": false,
          "shade": "smooth",
          "depthTest": true,
          "drawEnabled": true,
          "draped": false,
          "layerGroupDraped": null,
          "layerGroup": null,
          "lodDraped": null,
          "emissionRgb": [
            0,
            0,
            0
          ],
          "lodRange": null,
          "shinyRatio": null,
          "xPlaneRestTranslation": [
            0,
            0,
            0
          ]
        }
      }
    ],
    "parameterizedLightCount": 0,
    "parameterizedLights": [],
    "vertexLightCount": 0,
    "vertexLights": [],
    "namedLightCount": 5,
    "namedLights": [
      {
        "position": [
          null,
          0,
          6.96656942
        ],
        "name": "57.07613754",
        "params": [],
        "raw": "LIGHT_NAMED\tairplane_nav_tail_static_h 0 6.96656942 57.07613754"
      },
      {
        "position": [
          null,
          30.1836338,
          7.31377649
        ],
        "name": "35.99459839",
        "params": [],
        "raw": "LIGHT_NAMED\tairplane_nav_tail_static_h 30.1836338 7.31377649 35.99459839"
      },
      {
        "position": [
          null,
          30.1836338,
          7.31377649
        ],
        "name": "34.1348114",
        "params": [],
        "raw": "LIGHT_NAMED\tairplane_nav_right_static_h 30.1836338 7.31377649 34.1348114"
      },
      {
        "position": [
          null,
          -30.1836338,
          7.31377649
        ],
        "name": "34.1348114",
        "params": [],
        "raw": "LIGHT_NAMED\tairplane_nav_left_static_h -30.1836338 7.31377649 34.1348114"
      },
      {
        "position": [
          null,
          -30.1836338,
          7.31377649
        ],
        "name": "35.99459839",
        "params": [],
        "raw": "LIGHT_NAMED\tairplane_nav_tail_static_h -30.1836338 7.31377649 35.99459839"
      }
    ],
    "sourceBounds": {
      "min": [
        -39.70184326,
        -0.031771,
        -13.96255875
      ],
      "max": [
        39.70184326,
        18.32852173,
        65.44113159
      ]
    },
    "geometryPolicy": "preserve-source-positions-normals-uvs-topology-no-remesh-no-decimation;convert-X-Plane-clockwise-TRIS-to-glTF-counterclockwise-winding",
    "drawStatePolicy": "preserve-supported-per-TRIS-blend-and-cull-state;honor-IF-NOT-SCENERY_SHADOWS-and-IF-NOT-GLOBAL_SHADOWS;preserve-GLOBAL_LOD-and-TILTED-source-semantics;preserve-WEATHER_TRANSPARENT-as-source-metadata-with-no-browser-weather-overlay;bake-exact-zero-distance-GroundTraffic-rest-translation-including-keyframed-translations;reject-unsupported-render-state",
    "sceneryShadowsEnabled": true,
    "globalShadowsEnabled": true,
    "textureCoordinatePolicy": "preserve-source-uv-buffer-and-flip-v-at-material-level-for-gltf-upper-left-image-origin"
  }
}
