{
  "asset": {
    "version": "2.0",
    "generator": "RampReady exact X-Plane OBJ8 converter v2"
  },
  "extensionsUsed": [
    "KHR_texture_transform"
  ],
  "buffers": [
    {
      "uri": "American_Eagle_new.bin",
      "byteLength": 158444
    }
  ],
  "bufferViews": [
    {
      "buffer": 0,
      "byteOffset": 0,
      "byteLength": 49584,
      "target": 34962
    },
    {
      "buffer": 0,
      "byteOffset": 49584,
      "byteLength": 49584,
      "target": 34962
    },
    {
      "buffer": 0,
      "byteOffset": 99168,
      "byteLength": 33056,
      "target": 34962
    },
    {
      "buffer": 0,
      "byteOffset": 132224,
      "byteLength": 26220,
      "target": 34963
    }
  ],
  "accessors": [
    {
      "bufferView": 0,
      "componentType": 5126,
      "count": 4132,
      "type": "VEC3",
      "min": [
        -15.30522346,
        -0.0640887,
        -6.26151085
      ],
      "max": [
        15.30522346,
        10.33433437,
        29.32551956
      ]
    },
    {
      "bufferView": 1,
      "componentType": 5126,
      "count": 4132,
      "type": "VEC3",
      "min": [
        -1,
        -1,
        -1
      ],
      "max": [
        1,
        1,
        1
      ]
    },
    {
      "bufferView": 2,
      "componentType": 5126,
      "count": 4132,
      "type": "VEC2",
      "min": [
        0.0028964,
        0.00384986
      ],
      "max": [
        0.99694759,
        0.99680567
      ]
    },
    {
      "bufferView": 3,
      "byteOffset": 24,
      "componentType": 5123,
      "count": 13098,
      "type": "SCALAR",
      "min": [
        6
      ],
      "max": [
        4131
      ]
    }
  ],
  "images": [
    {
      "uri": "American_Eagle.png"
    },
    {
      "uri": "American_Eagle_LIT.png"
    },
    {
      "uri": "Normal.png"
    }
  ],
  "samplers": [
    {
      "magFilter": 9729,
      "minFilter": 9987,
      "wrapS": 10497,
      "wrapT": 10497
    }
  ],
  "textures": [
    {
      "sampler": 0,
      "source": 0
    },
    {
      "sampler": 0,
      "source": 1
    },
    {
      "sampler": 0,
      "source": 2
    }
  ],
  "materials": [
    {
      "name": "American_Eagle_new source material 0",
      "pbrMetallicRoughness": {
        "baseColorTexture": {
          "index": 0,
          "extensions": {
            "KHR_texture_transform": {
              "offset": [
                0,
                1
              ],
              "scale": [
                1,
                -1
              ]
            }
          }
        },
        "metallicFactor": 0,
        "roughnessFactor": 1
      },
      "doubleSided": false,
      "alphaMode": "BLEND",
      "emissiveFactor": [
        1,
        1,
        1
      ],
      "extras": {
        "xPlaneDraped": false,
        "xPlaneLayerGroupDraped": null,
        "xPlaneLayerGroup": null,
        "xPlaneLodDraped": null,
        "xPlaneEmissionRgb": [
          0,
          0,
          0
        ],
        "xPlaneLodRange": null,
        "xPlaneShinyRatio": null,
        "xPlaneGlobalSpecular": 1,
        "xPlaneGlobalAlphaCutoff": null,
        "xPlaneNormalMetalness": false
      },
      "emissiveTexture": {
        "index": 1,
        "extensions": {
          "KHR_texture_transform": {
            "offset": [
              0,
              1
            ],
            "scale": [
              1,
              -1
            ]
          }
        }
      },
      "normalTexture": {
        "index": 2,
        "extensions": {
          "KHR_texture_transform": {
            "offset": [
              0,
              1
            ],
            "scale": [
              1,
              -1
            ]
          }
        },
        "scale": 1
      }
    }
  ],
  "meshes": [
    {
      "name": "American_Eagle_new",
      "primitives": [
        {
          "attributes": {
            "POSITION": 0,
            "NORMAL": 1,
            "TEXCOORD_0": 2
          },
          "indices": 3,
          "material": 0,
          "mode": 4,
          "extras": {
            "xPlaneDrawState": {
              "alphaMode": "BLEND",
              "alphaCutoff": null,
              "doubleSided": false,
              "shade": "smooth",
              "depthTest": true,
              "drawEnabled": true,
              "draped": false,
              "layerGroupDraped": null,
              "layerGroup": null,
              "lodDraped": null,
              "emissionRgb": [
                0,
                0,
                0
              ],
              "lodRange": null,
              "shinyRatio": null,
              "xPlaneRestTranslation": [
                0,
                0,
                0
              ]
            }
          }
        }
      ]
    }
  ],
  "nodes": [
    {
      "name": "American_Eagle_new",
      "mesh": 0,
      "extras": {
        "xPlaneParameterizedLights": [],
        "xPlaneVertexLights": [],
        "xPlaneNamedLights": [
          {
            "position": [
              null,
              0,
              4.24052191
            ],
            "name": "27.23474503",
            "params": [],
            "raw": "LIGHT_NAMED\tairplane_nav_tail_static_h 0 4.24052191 27.23474503"
          },
          {
            "position": [
              null,
              13.39999962,
              3.28751349
            ],
            "name": "13.88309479",
            "params": [],
            "raw": "LIGHT_NAMED\tairplane_nav_right_static_h 13.39999962 3.28751349 13.88309479"
          },
          {
            "position": [
              null,
              -13.39999962,
              3.28751349
            ],
            "name": "13.88309479",
            "params": [],
            "raw": "LIGHT_NAMED\tairplane_nav_left_static_h -13.39999962 3.28751349 13.88309479"
          }
        ],
        "xPlaneGlobalNoShadow": false,
        "xPlaneGlobalLodRange": null,
        "xPlaneTilted": false,
        "xPlaneGlobalSpecular": 1,
        "xPlaneWeatherTexture": null,
        "xPlaneWeatherTransparent": false
      }
    }
  ],
  "scenes": [
    {
      "nodes": [
        0
      ]
    }
  ],
  "scene": 0,
  "extras": {
    "sourceFormat": "X-Plane OBJ8",
    "sourceFile": "American_Eagle_new.obj",
    "sourceTexture": "American_Eagle.png",
    "sourceDrapedTexture": null,
    "sourceLitTexture": "American_Eagle_LIT.png",
    "sourceNormalTexture": "Normal.png",
    "sourceNormalScale": 1,
    "sourceDrapedNormalTexture": null,
    "sourceDrapedNormalScale": null,
    "sourceWeatherTexture": null,
    "sourceWeatherTransparent": false,
    "globalNoShadow": false,
    "globalLodRange": null,
    "sourceTilted": false,
    "globalSpecular": 1,
    "globalAlphaCutoff": null,
    "normalMetalness": false,
    "pointCounts": [
      4132,
      0,
      0,
      13110
    ],
    "vertexCount": 4132,
    "indexCount": 13110,
    "triangleCount": 4366,
    "drawRanges": [
      {
        "start": 12,
        "count": 13098,
        "state": {
          "alphaMode": "BLEND",
          "alphaCutoff": null,
          "doubleSided": false,
          "shade": "smooth",
          "depthTest": true,
          "drawEnabled": true,
          "draped": false,
          "layerGroupDraped": null,
          "layerGroup": null,
          "lodDraped": null,
          "emissionRgb": [
            0,
            0,
            0
          ],
          "lodRange": null,
          "shinyRatio": null,
          "xPlaneRestTranslation": [
            0,
            0,
            0
          ]
        }
      }
    ],
    "parameterizedLightCount": 0,
    "parameterizedLights": [],
    "vertexLightCount": 0,
    "vertexLights": [],
    "namedLightCount": 3,
    "namedLights": [
      {
        "position": [
          null,
          0,
          4.24052191
        ],
        "name": "27.23474503",
        "params": [],
        "raw": "LIGHT_NAMED\tairplane_nav_tail_static_h 0 4.24052191 27.23474503"
      },
      {
        "position": [
          null,
          13.39999962,
          3.28751349
        ],
        "name": "13.88309479",
        "params": [],
        "raw": "LIGHT_NAMED\tairplane_nav_right_static_h 13.39999962 3.28751349 13.88309479"
      },
      {
        "position": [
          null,
          -13.39999962,
          3.28751349
        ],
        "name": "13.88309479",
        "params": [],
        "raw": "LIGHT_NAMED\tairplane_nav_left_static_h -13.39999962 3.28751349 13.88309479"
      }
    ],
    "sourceBounds": {
      "min": [
        -15.30522346,
        -0.0640887,
        -6.26151085
      ],
      "max": [
        15.30522346,
        10.33433437,
        29.32551956
      ]
    },
    "geometryPolicy": "preserve-source-positions-normals-uvs-topology-no-remesh-no-decimation;convert-X-Plane-clockwise-TRIS-to-glTF-counterclockwise-winding",
    "drawStatePolicy": "preserve-supported-per-TRIS-blend-and-cull-state;honor-IF-NOT-SCENERY_SHADOWS-and-IF-NOT-GLOBAL_SHADOWS;preserve-GLOBAL_LOD-and-TILTED-source-semantics;preserve-WEATHER_TRANSPARENT-as-source-metadata-with-no-browser-weather-overlay;bake-exact-zero-distance-GroundTraffic-rest-translation-including-keyframed-translations;reject-unsupported-render-state",
    "sceneryShadowsEnabled": true,
    "globalShadowsEnabled": true,
    "textureCoordinatePolicy": "preserve-source-uv-buffer-and-flip-v-at-material-level-for-gltf-upper-left-image-origin"
  }
}
