{
  "asset": {
    "version": "2.0",
    "generator": "RampReady exact X-Plane OBJ8 converter v2"
  },
  "extensionsUsed": [
    "KHR_texture_transform"
  ],
  "buffers": [
    {
      "uri": "Frontier.bin",
      "byteLength": 220780
    }
  ],
  "bufferViews": [
    {
      "buffer": 0,
      "byteOffset": 0,
      "byteLength": 66732,
      "target": 34962
    },
    {
      "buffer": 0,
      "byteOffset": 66732,
      "byteLength": 66732,
      "target": 34962
    },
    {
      "buffer": 0,
      "byteOffset": 133464,
      "byteLength": 44488,
      "target": 34962
    },
    {
      "buffer": 0,
      "byteOffset": 177952,
      "byteLength": 42828,
      "target": 34963
    }
  ],
  "accessors": [
    {
      "bufferView": 0,
      "componentType": 5126,
      "count": 5561,
      "type": "VEC3",
      "min": [
        -21.08730888,
        -0.07477057,
        -6.81460857
      ],
      "max": [
        21.08730888,
        11.78675556,
        35.36000824
      ]
    },
    {
      "bufferView": 1,
      "componentType": 5126,
      "count": 5561,
      "type": "VEC3",
      "min": [
        -1,
        -1,
        -1
      ],
      "max": [
        1,
        1,
        1
      ]
    },
    {
      "bufferView": 2,
      "componentType": 5126,
      "count": 5561,
      "type": "VEC2",
      "min": [
        0.00143138,
        0.00105826
      ],
      "max": [
        0.99915779,
        0.99808818
      ]
    },
    {
      "bufferView": 3,
      "byteOffset": 0,
      "componentType": 5123,
      "count": 21402,
      "type": "SCALAR",
      "min": [
        0
      ],
      "max": [
        5554
      ]
    }
  ],
  "images": [
    {
      "uri": "Frontier.png"
    },
    {
      "uri": "Frontier_LIT.png"
    },
    {
      "uri": "Normal.png"
    }
  ],
  "samplers": [
    {
      "magFilter": 9729,
      "minFilter": 9987,
      "wrapS": 10497,
      "wrapT": 10497
    }
  ],
  "textures": [
    {
      "sampler": 0,
      "source": 0
    },
    {
      "sampler": 0,
      "source": 1
    },
    {
      "sampler": 0,
      "source": 2
    }
  ],
  "materials": [
    {
      "name": "Frontier source material 0",
      "pbrMetallicRoughness": {
        "baseColorTexture": {
          "index": 0,
          "extensions": {
            "KHR_texture_transform": {
              "offset": [
                0,
                1
              ],
              "scale": [
                1,
                -1
              ]
            }
          }
        },
        "metallicFactor": 0,
        "roughnessFactor": 1
      },
      "doubleSided": false,
      "alphaMode": "BLEND",
      "emissiveFactor": [
        1,
        1,
        1
      ],
      "extras": {
        "xPlaneDraped": false,
        "xPlaneLayerGroupDraped": null,
        "xPlaneLayerGroup": null,
        "xPlaneLodDraped": null,
        "xPlaneEmissionRgb": [
          0,
          0,
          0
        ],
        "xPlaneLodRange": null,
        "xPlaneShinyRatio": null,
        "xPlaneGlobalSpecular": 1,
        "xPlaneGlobalAlphaCutoff": null,
        "xPlaneNormalMetalness": false
      },
      "emissiveTexture": {
        "index": 1,
        "extensions": {
          "KHR_texture_transform": {
            "offset": [
              0,
              1
            ],
            "scale": [
              1,
              -1
            ]
          }
        }
      },
      "normalTexture": {
        "index": 2,
        "extensions": {
          "KHR_texture_transform": {
            "offset": [
              0,
              1
            ],
            "scale": [
              1,
              -1
            ]
          }
        },
        "scale": 1
      }
    }
  ],
  "meshes": [
    {
      "name": "Frontier",
      "primitives": [
        {
          "attributes": {
            "POSITION": 0,
            "NORMAL": 1,
            "TEXCOORD_0": 2
          },
          "indices": 3,
          "material": 0,
          "mode": 4,
          "extras": {
            "xPlaneDrawState": {
              "alphaMode": "BLEND",
              "alphaCutoff": null,
              "doubleSided": false,
              "shade": "smooth",
              "depthTest": true,
              "drawEnabled": true,
              "draped": false,
              "layerGroupDraped": null,
              "layerGroup": null,
              "lodDraped": null,
              "emissionRgb": [
                0,
                0,
                0
              ],
              "lodRange": null,
              "shinyRatio": null,
              "xPlaneRestTranslation": [
                0,
                0,
                0
              ]
            }
          }
        }
      ]
    }
  ],
  "nodes": [
    {
      "name": "Frontier",
      "mesh": 0,
      "extras": {
        "xPlaneParameterizedLights": [],
        "xPlaneVertexLights": [],
        "xPlaneNamedLights": [
          {
            "position": [
              null,
              -16.76357269,
              4.53538895
            ],
            "name": "15.46712112",
            "params": [],
            "raw": "LIGHT_NAMED\tairplane_nav_left_static_h -16.76357269 4.53538895 15.46712112"
          },
          {
            "position": [
              null,
              16.76357079,
              4.53538895
            ],
            "name": "15.46712399",
            "params": [],
            "raw": "LIGHT_NAMED\tairplane_nav_right_static_h 16.76357079 4.53538895 15.46712399"
          },
          {
            "position": [
              null,
              -0.00000285,
              4.84514952
            ],
            "name": "32.51327515",
            "params": [],
            "raw": "LIGHT_NAMED\tairplane_nav_tail_static_h -0.00000285 4.84514952 32.51327515"
          }
        ],
        "xPlaneGlobalNoShadow": false,
        "xPlaneGlobalSpecular": 1,
        "xPlaneWeatherTexture": null,
        "xPlaneWeatherTransparent": false
      }
    }
  ],
  "scenes": [
    {
      "nodes": [
        0
      ]
    }
  ],
  "scene": 0,
  "extras": {
    "sourceFormat": "X-Plane OBJ8",
    "sourceFile": "Frontier.obj",
    "sourceTexture": "Frontier.png",
    "sourceDrapedTexture": null,
    "sourceLitTexture": "Frontier_LIT.png",
    "sourceNormalTexture": "Normal.png",
    "sourceNormalScale": 1,
    "sourceDrapedNormalTexture": null,
    "sourceDrapedNormalScale": null,
    "sourceWeatherTexture": null,
    "sourceWeatherTransparent": false,
    "globalNoShadow": false,
    "globalSpecular": 1,
    "globalAlphaCutoff": null,
    "normalMetalness": false,
    "pointCounts": [
      5561,
      0,
      0,
      21414
    ],
    "vertexCount": 5561,
    "indexCount": 21414,
    "triangleCount": 7134,
    "drawRanges": [
      {
        "start": 0,
        "count": 21402,
        "state": {
          "alphaMode": "BLEND",
          "alphaCutoff": null,
          "doubleSided": false,
          "shade": "smooth",
          "depthTest": true,
          "drawEnabled": true,
          "draped": false,
          "layerGroupDraped": null,
          "layerGroup": null,
          "lodDraped": null,
          "emissionRgb": [
            0,
            0,
            0
          ],
          "lodRange": null,
          "shinyRatio": null,
          "xPlaneRestTranslation": [
            0,
            0,
            0
          ]
        }
      }
    ],
    "parameterizedLightCount": 0,
    "parameterizedLights": [],
    "vertexLightCount": 0,
    "vertexLights": [],
    "namedLightCount": 3,
    "namedLights": [
      {
        "position": [
          null,
          -16.76357269,
          4.53538895
        ],
        "name": "15.46712112",
        "params": [],
        "raw": "LIGHT_NAMED\tairplane_nav_left_static_h -16.76357269 4.53538895 15.46712112"
      },
      {
        "position": [
          null,
          16.76357079,
          4.53538895
        ],
        "name": "15.46712399",
        "params": [],
        "raw": "LIGHT_NAMED\tairplane_nav_right_static_h 16.76357079 4.53538895 15.46712399"
      },
      {
        "position": [
          null,
          -0.00000285,
          4.84514952
        ],
        "name": "32.51327515",
        "params": [],
        "raw": "LIGHT_NAMED\tairplane_nav_tail_static_h -0.00000285 4.84514952 32.51327515"
      }
    ],
    "sourceBounds": {
      "min": [
        -21.08730888,
        -0.07477057,
        -6.81460857
      ],
      "max": [
        21.08730888,
        11.78675556,
        35.36000824
      ]
    },
    "geometryPolicy": "preserve-source-positions-normals-uvs-topology-no-remesh-no-decimation;convert-X-Plane-clockwise-TRIS-to-glTF-counterclockwise-winding",
    "drawStatePolicy": "preserve-supported-per-TRIS-blend-and-cull-state;honor-IF-NOT-SCENERY_SHADOWS;preserve-WEATHER_TRANSPARENT-as-source-metadata-with-no-browser-weather-overlay;bake-exact-zero-distance-GroundTraffic-rest-translation-including-keyframed-translations;reject-unsupported-render-state",
    "sceneryShadowsEnabled": true,
    "textureCoordinatePolicy": "preserve-source-uv-buffer-and-flip-v-at-material-level-for-gltf-upper-left-image-origin"
  }
}
